<?xml version="1.0" encoding="UTF-8"?>
<svg xmlns="http://www.w3.org/2000/svg" viewBox="0 0 644.6 432.85">
  <defs>
    <style>
      .cls-1 {
        fill: #fff;
      }

      .cls-2 {
        fill: #fafafa;
      }

      .cls-3 {
        fill: #f5f5f5;
      }

      .cls-4 {
        fill: #455a64;
      }

      .cls-5 {
        opacity: .2;
      }

      .cls-6 {
        fill: #a56959;
      }

      .cls-7 {
        fill: #e0e0e0;
      }

      .cls-8 {
        fill: #e8505b;
      }

      .cls-9 {
        opacity: .3;
      }

      .cls-10 {
        opacity: .78;
      }

      .cls-11 {
        fill: #ebebeb;
      }

      .cls-12 {
        fill: #7c4435;
      }

      .cls-13 {
        fill: #263238;
      }
    </style>
  </defs>
  <g id="Background_Complete" data-name="Background Complete">
    <g>
      <rect class="cls-2" x="230.75" y="29.03" width="365.8" height="245"/>
      <rect class="cls-11" x="230.75" y="29.03" width="365.8" height="24.47"/>
      <path class="cls-2" d="m246.6,41.27c0,1.52-1.32,2.75-2.96,2.75s-2.96-1.23-2.96-2.75,1.32-2.75,2.96-2.75,2.96,1.23,2.96,2.75Z"/>
      <path class="cls-2" d="m256.14,41.27c0,1.52-1.32,2.75-2.96,2.75s-2.96-1.23-2.96-2.75,1.32-2.75,2.96-2.75,2.96,1.23,2.96,2.75Z"/>
      <path class="cls-2" d="m265.68,41.27c0,1.52-1.32,2.75-2.96,2.75s-2.96-1.23-2.96-2.75,1.32-2.75,2.96-2.75,2.96,1.23,2.96,2.75Z"/>
    </g>
  </g>
  <g id="Plant">
    <g>
      <path class="cls-8" d="m564.66,305.99c-19.12-13.36-23.45-38.15-22.7-60.43.13-3.72-.28-7.64,1.49-10.9,1.77-3.26,5.9-5.49,9.23-3.93,2.76,1.3,3.97,4.51,5.51,7.17,2.06,3.54,5.12,6.46,8.72,8.33,2.37,1.23,5.3,1.98,7.64.69,3.21-1.77,3.59-6.2,3.56-9.9-.04-6.9-.09-13.79-.13-20.68-.02-3.7-.03-7.48,1.12-10.99,1.15-3.51,3.69-6.77,7.21-7.76,3.52-.99,7.87,1.04,8.61,4.66.31,1.51,0,3.07.11,4.61.1,1.54.82,3.24,2.28,3.66,1.48.43,2.96-.62,4.06-1.7,3.82-3.74,6.41-8.55,8.83-13.33,2.42-4.79,4.77-9.68,8.24-13.76,3.46-4.07,8.26-7.3,13.55-7.6,5.3-.3,10.94,2.97,12.28,8.17,1.34,5.22-1.7,10.51-5.01,14.73-4.91,6.26-10.72,11.8-17.19,16.39-1.17.83-2.43,1.72-2.88,3.09-.8,2.47,1.53,4.92,3.97,5.73,2.76.92,5.75.63,8.63.97,2.88.34,6.01,1.61,7.1,4.34,1.52,3.78-1.65,7.74-4.76,10.34-6.23,5.2-13.35,9.3-20.94,12.09-2.72,1-5.59,1.87-7.78,3.78-2.19,1.91-3.52,5.24-2.19,7.84,1.33,2.61,4.73,3.44,7.58,2.91,2.85-.53,5.4-2.08,8.12-3.1,5.08-1.92,11.65-1.57,14.91,2.83,2.14,2.89,2.33,6.91,1.25,10.35-1.08,3.44-3.28,6.41-5.61,9.14-8.15,9.56-18.58,17.26-30.37,21.35-11.79,4.09-22.72,5.2-34.44.91"/>
      <path class="cls-13" d="m564.37,322.51c.81-8.83,2.74-19.25,6.04-30.49,3.28-11.25,7.9-23.27,13.16-35.69,1.33-3.1,2.64-6.16,3.93-9.18,1.3-3.01,2.58-5.99,4.02-8.83,2.85-5.7,6.03-10.96,9.2-15.85,3.17-4.9,6.36-9.44,9.37-13.66,3.02-4.21,5.91-8.09,8.69-11.51,5.55-6.86,10.67-11.86,14.33-15.14,1.82-1.65,3.28-2.88,4.28-3.7.48-.39.86-.7,1.14-.93.26-.21.4-.31.4-.3,0,0-.11.13-.36.35-.27.24-.64.57-1.1.98-.97.86-2.4,2.12-4.19,3.8-3.6,3.34-8.64,8.37-14.13,15.25-2.75,3.43-5.61,7.31-8.61,11.53-2.99,4.23-6.15,8.77-9.3,13.67-3.15,4.9-6.3,10.14-9.13,15.81-1.43,2.83-2.7,5.79-3.99,8.8-1.29,3.02-2.6,6.08-3.92,9.17-5.26,12.41-9.88,24.4-13.18,35.6-3.32,11.19-5.3,21.57-6.17,30.36"/>
      <path class="cls-13" d="m591.71,238.29s-.17-.55-.36-1.58c-.19-1.02-.43-2.51-.69-4.35-.52-3.68-1.07-8.79-1.66-14.43-.58-5.64-1.2-10.73-1.78-14.39-.28-1.83-.53-3.32-.71-4.34-.18-1.02-.25-1.6-.21-1.61.05-.01.21.54.47,1.55.26,1.01.58,2.48.92,4.31.7,3.66,1.4,8.76,1.98,14.4.56,5.56,1.07,10.6,1.46,14.45.19,1.74.34,3.2.47,4.37.11,1.03.15,1.61.1,1.62Z"/>
      <path class="cls-13" d="m639.28,229.4s-.68.13-1.9.23c-1.22.11-2.99.26-5.16.51-4.36.47-10.35,1.33-16.92,2.57-6.57,1.25-12.47,2.64-16.71,3.76-2.12.55-3.83,1.04-5.01,1.37-1.18.34-1.84.5-1.86.46-.01-.05.62-.3,1.78-.71,1.16-.41,2.85-.97,4.96-1.58,4.22-1.25,10.12-2.71,16.71-3.97,6.59-1.24,12.62-2.03,17-2.38,2.19-.19,3.97-.27,5.2-.29,1.23-.02,1.91,0,1.91.04Z"/>
      <path class="cls-13" d="m571,291.14s-.13-.19-.33-.58c-.22-.47-.49-1.03-.81-1.72-.7-1.5-1.66-3.69-2.8-6.42-2.29-5.45-5.23-13.08-8.35-21.53-3.12-8.46-5.98-16.11-8.16-21.59-1.07-2.67-1.95-4.86-2.6-6.49-.28-.71-.51-1.29-.7-1.77-.15-.41-.22-.63-.2-.64.02,0,.13.19.33.58.22.47.49,1.03.81,1.72.7,1.5,1.66,3.69,2.8,6.42,2.29,5.45,5.23,13.08,8.35,21.54,3.12,8.46,5.98,16.1,8.16,21.59,1.07,2.67,1.95,4.86,2.6,6.49.28.71.51,1.29.7,1.77.15.41.22.63.2.64Z"/>
      <path class="cls-13" d="m634.2,270.77s-.21.11-.63.26c-.49.17-1.1.37-1.84.62-1.7.55-3.98,1.29-6.77,2.19-5.71,1.85-13.58,4.5-22.26,7.44-8.69,2.94-16.58,5.52-22.34,7.26-2.88.87-5.21,1.55-6.83,1.98-.75.2-1.37.36-1.87.49-.43.11-.66.15-.67.13,0-.02.21-.11.63-.26.49-.16,1.1-.37,1.84-.61,1.7-.55,3.98-1.29,6.77-2.19,5.71-1.85,13.58-4.5,22.27-7.45,8.68-2.94,16.58-5.52,22.33-7.26,2.88-.87,5.21-1.55,6.84-1.98.75-.2,1.37-.36,1.87-.49.43-.11.66-.15.67-.13Z"/>
    </g>
  </g>
  <g id="Sparkles">
    <g>
      <g>
        <path class="cls-13" d="m145.48,144.89c0,.22-1.59.39-3.55.39s-3.55-.18-3.55-.39,1.59-.39,3.55-.39,3.55.18,3.55.39Z"/>
        <path class="cls-13" d="m149.24,135.24c.22,0,.39,1.61.39,3.6s-.18,3.6-.39,3.6-.39-1.61-.39-3.6.18-3.6.39-3.6Z"/>
      </g>
      <g>
        <path class="cls-13" d="m153.26,144.66c0-.22,1.59-.39,3.55-.39s3.55.18,3.55.39-1.59.39-3.55.39-3.55-.18-3.55-.39Z"/>
        <path class="cls-13" d="m149.49,154.31c-.22,0-.39-1.61-.39-3.6s.18-3.6.39-3.6.39,1.61.39,3.6-.18,3.6-.39,3.6Z"/>
      </g>
      <path class="cls-13" d="m155.22,150.17c-.17.14-.87-.42-1.56-1.26-.7-.83-1.13-1.62-.96-1.76.17-.14.87.42,1.56,1.26.7.83,1.13,1.62.96,1.76Z"/>
      <path class="cls-13" d="m154.89,139.23c.15.15-.31.87-1.03,1.6-.72.73-1.43,1.2-1.59,1.04-.15-.15.31-.87,1.03-1.6.72-.73,1.43-1.2,1.59-1.04Z"/>
      <path class="cls-13" d="m146.76,142.02c-.14.17-.81-.16-1.5-.74-.69-.57-1.13-1.17-1-1.34.14-.17.81.16,1.5.74.69.57,1.13,1.17,1,1.34Z"/>
      <path class="cls-13" d="m146.44,146.84c.16.15-.24.85-.9,1.57-.66.72-1.32,1.19-1.48,1.04-.16-.15.24-.85.9-1.57.66-.72,1.32-1.19,1.48-1.04Z"/>
    </g>
    <g>
      <g>
        <path class="cls-13" d="m4.03,251.38c0,.12-.9.22-2.01.22s-2.01-.1-2.01-.22.9-.22,2.01-.22,2.01.1,2.01.22Z"/>
        <path class="cls-13" d="m6.17,245.91c.12,0,.22.91.22,2.04s-.1,2.04-.22,2.04-.22-.91-.22-2.04.1-2.04.22-2.04Z"/>
      </g>
      <g>
        <path class="cls-13" d="m8.44,251.25c0-.12.9-.22,2.01-.22s2.01.1,2.01.22-.9.22-2.01.22-2.01-.1-2.01-.22Z"/>
        <path class="cls-13" d="m6.31,256.73c-.12,0-.22-.91-.22-2.04s.1-2.04.22-2.04.22.91.22,2.04-.1,2.04-.22,2.04Z"/>
      </g>
      <path class="cls-13" d="m9.56,254.38c-.09.08-.49-.24-.89-.71-.4-.47-.64-.92-.54-1,.09-.08.49.24.89.71.4.47.64.92.54,1Z"/>
      <path class="cls-13" d="m9.37,248.17c.09.09-.17.49-.59.91-.41.41-.81.68-.9.59-.09-.09.17-.49.59-.91.41-.41.81-.68.9-.59Z"/>
      <path class="cls-13" d="m4.76,249.75c-.08.09-.46-.09-.85-.42-.39-.33-.64-.67-.57-.76.08-.09.46.09.85.42.39.33.64.67.57.76Z"/>
      <path class="cls-13" d="m4.57,252.49c.09.08-.14.48-.51.89-.37.41-.75.67-.84.59-.09-.08.14-.48.51-.89.37-.41.75-.67.84-.59Z"/>
    </g>
    <path class="cls-13" d="m154.87,233.48l.23.55c.4.97,1.18,1.74,2.15,2.13l.6.24-.58.24c-.99.4-1.77,1.18-2.17,2.17l-.16.4-.24-.51c-.44-.92-1.23-1.64-2.2-1.99l-.53-.19.69-.33c.86-.42,1.55-1.14,1.92-2.03l.29-.69Z"/>
    <path class="cls-13" d="m47.27,162.22l.23.55c.4.97,1.18,1.74,2.15,2.13l.6.24-.58.23c-.99.4-1.77,1.18-2.17,2.17l-.16.4-.24-.51c-.44-.92-1.23-1.64-2.2-1.99l-.53-.19.69-.33c.86-.42,1.55-1.14,1.92-2.03l.29-.69Z"/>
  </g>
  <g id="Device">
    <g>
      <g>
        <g>
          <rect class="cls-13" x="165.92" y="76.44" width="402.04" height="265.86" rx="14.57" ry="14.57"/>
          <path class="cls-13" d="m149.11,322.64h435.57v5.47c0,9.82-7.97,17.8-17.8,17.8H166.9c-9.82,0-17.8-7.97-17.8-17.8v-5.47h0Z"/>
          <rect class="cls-4" x="176.71" y="87.01" width="379.33" height="224.52"/>
          <polygon class="cls-4" points="327.3 322.64 332.71 331.24 408.77 331.24 413.78 322.64 327.3 322.64"/>
        </g>
        <g>
          <path class="cls-11" d="m187.8,94.61h357.94c1.81,0,3.27,1.47,3.27,3.27v209.65c0,1.81-1.47,3.27-3.27,3.27H187.8c-1.81,0-3.27-1.47-3.27-3.27V97.88c0-1.81,1.47-3.27,3.27-3.27Z"/>
          <rect class="cls-2" x="184.52" y="110.45" width="364.48" height="200.36"/>
          <path class="cls-13" d="m214.42,102.96c0,1.61-1.3,2.91-2.91,2.91s-2.91-1.3-2.91-2.91,1.3-2.91,2.91-2.91,2.91,1.3,2.91,2.91Z"/>
          <path class="cls-13" d="m196.77,102.96c0,1.61-1.3,2.91-2.91,2.91s-2.91-1.3-2.91-2.91,1.3-2.91,2.91-2.91,2.91,1.3,2.91,2.91Z"/>
          <path class="cls-13" d="m205.24,102.96c0,1.61-1.3,2.91-2.91,2.91s-2.91-1.3-2.91-2.91,1.3-2.91,2.91-2.91,2.91,1.3,2.91,2.91Z"/>
        </g>
        <path class="cls-4" d="m564.5,322.64c0,.14-89.23.26-199.28.26s-199.3-.12-199.3-.26,89.21-.26,199.3-.26,199.28.12,199.28.26Z"/>
      </g>
      <g>
        <rect class="cls-7" x="209.78" y="211.38" width="83.17" height="5.56"/>
        <rect class="cls-7" x="317.21" y="134.13" width="83.17" height="5.56"/>
        <path class="cls-7" d="m524.09,154.85c0,.14-46.31.26-103.43.26s-103.44-.12-103.44-.26,46.3-.26,103.44-.26,103.43.12,103.43.26Z"/>
        <path class="cls-7" d="m524.09,167c0,.14-46.31.26-103.43.26s-103.44-.12-103.44-.26,46.3-.26,103.44-.26,103.43.12,103.43.26Z"/>
        <path class="cls-7" d="m524.09,179.15c0,.14-46.31.26-103.43.26s-103.44-.12-103.44-.26,46.3-.26,103.44-.26,103.43.12,103.43.26Z"/>
        <path class="cls-7" d="m524.09,191.3c0,.14-46.31.26-103.43.26s-103.44-.12-103.44-.26,46.3-.26,103.44-.26,103.43.12,103.43.26Z"/>
        <path class="cls-7" d="m524.09,203.45c0,.14-46.31.26-103.43.26s-103.44-.12-103.44-.26,46.3-.26,103.44-.26,103.43.12,103.43.26Z"/>
        <path class="cls-7" d="m397.97,215.6c0,.14-18.08.26-40.38.26s-40.38-.12-40.38-.26,18.08-.26,40.38-.26,40.38.12,40.38.26Z"/>
        <path class="cls-7" d="m522.58,239.18c0,.14-30.44.26-67.98.26s-67.99-.12-67.99-.26,30.44-.26,67.99-.26,67.98.12,67.98.26Z"/>
        <path class="cls-7" d="m522.58,252.07c0,.14-30.44.26-67.98.26s-67.99-.12-67.99-.26,30.44-.26,67.99-.26,67.98.12,67.98.26Z"/>
        <path class="cls-7" d="m522.58,264.97c0,.14-30.44.26-67.98.26s-67.99-.12-67.99-.26,30.44-.26,67.99-.26,67.98.12,67.98.26Z"/>
        <path class="cls-7" d="m522.58,277.87c0,.14-30.44.26-67.98.26s-67.99-.12-67.99-.26,30.44-.26,67.99-.26,67.98.12,67.98.26Z"/>
        <path class="cls-7" d="m293.17,237.94c0,.14-18.15.26-40.53.26s-40.53-.12-40.53-.26,18.14-.26,40.53-.26,40.53.12,40.53.26Z"/>
        <path class="cls-7" d="m293.17,248.07c0,.14-18.15.26-40.53.26s-40.53-.12-40.53-.26,18.14-.26,40.53-.26,40.53.12,40.53.26Z"/>
        <path class="cls-7" d="m293.17,258.2c0,.14-18.15.26-40.53.26s-40.53-.12-40.53-.26,18.14-.26,40.53-.26,40.53.12,40.53.26Z"/>
        <path class="cls-7" d="m293.17,268.33c0,.14-18.15.26-40.53.26s-40.53-.12-40.53-.26,18.14-.26,40.53-.26,40.53.12,40.53.26Z"/>
        <path class="cls-7" d="m293.17,278.46c0,.14-18.15.26-40.53.26s-40.53-.12-40.53-.26,18.14-.26,40.53-.26,40.53.12,40.53.26Z"/>
        <g>
          <rect class="cls-3" x="317.16" y="233.02" width="59.01" height="57.09"/>
          <polygon class="cls-11" points="321.74 285.23 338.06 255.85 351.41 274.63 359.53 264.66 371.6 285.23 321.74 285.23"/>
          <path class="cls-11" d="m357.1,250.14c0,2.35-1.9,4.25-4.25,4.25s-4.25-1.9-4.25-4.25,1.9-4.25,4.25-4.25,4.25,1.9,4.25,4.25Z"/>
          <path class="cls-11" d="m371.6,285.39s0-.08-.01-.23c0-.17,0-.39-.01-.67,0-.61-.02-1.46-.03-2.57-.01-2.26-.04-5.54-.06-9.7-.03-8.34-.07-20.21-.12-34.47l.24.24c-14.44.01-31.56.03-49.86.04-.07.06.53-.53.28-.27h0v3.24c0,1.08,0,2.15,0,3.22,0,2.14,0,4.26,0,6.36,0,4.2,0,8.3,0,12.3,0,8-.02,15.56-.03,22.51l-.24-.24c14.88.05,27.31.09,36.05.12,4.36.03,7.79.05,10.17.06,1.16.01,2.06.02,2.7.03.29,0,.52.01.7.01.16,0,.24,0,.25.01,0,0-.07,0-.22.01-.17,0-.39,0-.67.01-.63,0-1.51.02-2.65.03-2.36.02-5.78.04-10.11.06-8.78.03-21.26.07-36.21.12h-.24s0-.25,0-.25c0-6.95-.02-14.51-.03-22.51,0-4,0-8.11,0-12.3,0-2.1,0-4.22,0-6.36,0-1.07,0-2.14,0-3.22v-2.43s0-.41,0-.41v-.38h0c-.25.23.34-.36.29-.3,18.3.01,35.42.03,49.86.04h.24s0,.24,0,.24c-.05,14.32-.09,26.25-.12,34.63-.03,4.13-.05,7.39-.06,9.64-.01,1.08-.02,1.93-.03,2.52,0,.27-.01.48-.01.64,0,.14,0,.21-.01.21Z"/>
        </g>
      </g>
      <g>
        <rect class="cls-3" x="211.35" y="124.63" width="80.04" height="77.43"/>
        <polygon class="cls-7" points="217.56 195.44 239.7 155.59 257.81 181.06 268.81 167.54 285.18 195.44 217.56 195.44"/>
        <path class="cls-7" d="m265.52,147.84c0,3.18-2.58,5.76-5.76,5.76s-5.76-2.58-5.76-5.76,2.58-5.76,5.76-5.76,5.76,2.58,5.76,5.76Z"/>
        <path class="cls-7" d="m285.18,195.65s-.01-.11-.02-.32c0-.23-.01-.53-.02-.9,0-.82-.02-1.99-.04-3.48-.02-3.07-.05-7.51-.08-13.15-.04-11.31-.1-27.42-.17-46.75l.33.33c-19.59.02-42.8.03-67.62.05-.09.08.72-.72.37-.37v4.39c0,1.46,0,2.92,0,4.37,0,2.9,0,5.78,0,8.62,0,5.69,0,11.26,0,16.69-.01,10.84-.03,21.1-.04,30.53l-.33-.33c20.18.07,37.04.13,48.9.17,5.91.04,10.57.07,13.79.09,1.57.02,2.8.03,3.66.04.4,0,.71.01.95.02.21,0,.33.01.33.02,0,0-.09.01-.3.02-.23,0-.53.01-.91.02-.85,0-2.05.02-3.59.04-3.2.02-7.84.05-13.72.09-11.9.04-28.84.1-49.11.17h-.33s0-.33,0-.33c-.01-9.43-.02-19.69-.04-30.53,0-5.42,0-11,0-16.69,0-2.85,0-5.72,0-8.62,0-1.45,0-2.91,0-4.37v-3.3s0-.55,0-.55v-.54c-.34.33.46-.48.39-.39,24.82.02,48.03.04,67.62.05h.33s0,.33,0,.33c-.07,19.42-.13,35.6-.17,46.96-.04,5.61-.07,10.02-.09,13.08-.02,1.47-.03,2.61-.04,3.42,0,.36-.01.64-.02.87,0,.19-.01.29-.02.28Z"/>
      </g>
    </g>
  </g>
  <g id="Padlock">
    <g>
      <g>
        <path class="cls-13" d="m406.95,182.34l-8-.11.3-21.78c0-16.01-13.07-29.07-29.13-29.07s-29.13,13.07-29.13,29.13l-.3,21.84-8-.11.3-21.78c0-20.42,16.66-37.07,37.13-37.07s37.13,16.66,37.13,37.13l-.3,21.84Z"/>
        <rect class="cls-8" x="315.12" y="171.73" width="110.86" height="108.31" rx="18.29" ry="18.29"/>
        <g class="cls-9">
          <path d="m381.59,220.17c0-6.1-4.95-11.05-11.05-11.05s-11.05,4.95-11.05,11.05c0,3.97,2.1,7.43,5.23,9.38l-2.83,13.09h18.13s-2.04-8.22-3.32-13.3c2.95-1.98,4.89-5.35,4.89-9.18Z"/>
        </g>
      </g>
      <g class="cls-5">
        <path class="cls-1" d="m322.21,247.2c-.72-.02-1.04-12.65-.71-28.22.33-15.58,1.17-28.18,1.89-28.17.72.02,1.04,12.65.71,28.22-.33,15.57-1.17,28.18-1.89,28.17Z"/>
      </g>
      <g class="cls-5">
        <path class="cls-1" d="m322.29,259.73c-.72,0-1.32-1.22-1.34-2.75-.02-1.53.55-2.77,1.27-2.78.72,0,1.32,1.22,1.34,2.75.02,1.53-.55,2.77-1.27,2.78Z"/>
      </g>
      <g class="cls-5">
        <path class="cls-1" d="m357.07,244.42c-.57-.19.78-5.95,3.13-13.61l.29,1.27c-1.06-1.06-2.18-2.18-3.34-3.4-1.94-2.21-2.86-4.89-2.99-7.36-.14-2.48.57-4.68,1.47-6.24.91-1.59,2-2.61,2.81-3.17.82-.57,1.37-.72,1.47-.58.26.32-1.44,1.66-2.63,4.56-.58,1.44-.97,3.26-.74,5.25.21,1.97,1.06,4.12,2.53,5.8,1.12,1.18,2.2,2.33,3.22,3.4l.54.57-.24.7c-2.64,7.57-4.95,13.01-5.53,12.83Z"/>
      </g>
      <g class="cls-5">
        <path class="cls-1" d="m402.83,179.26c0,.36-4.43.65-11.59.83-7.16.18-17.04.25-27.95.17-5.46-.04-10.66-.12-15.39-.22-4.73-.05-9.01-.39-12.42-.04-3.44.32-6.02,1.47-7.59,2.56-1.59,1.09-2.24,2-2.42,1.88-.12-.06.25-1.21,1.78-2.67,1.5-1.45,4.28-3.01,7.97-3.6,1.83-.32,3.85-.43,5.97-.47,2.11-.02,4.36-.05,6.72-.07,4.73-.03,9.93-.03,15.39.01,10.91.08,20.8.3,27.95.59s11.57.65,11.57,1.01Z"/>
      </g>
    </g>
  </g>
  <g id="Character">
    <g>
      <g>
        <g>
          <path class="cls-8" d="m28.72,410.69l-.7,2.65s-9.63,15.67-8.49,17.13c1.14,1.46,3.33,2.93,6.68,2.09,3.35-.84,17.5-14.27,17.5-14.27l.81-2.15-15.79-5.45Z"/>
          <g class="cls-9">
            <path d="m20.48,426.94s4.17-1.85,6.58,3.54c0,0,1.81-.67,6.81-4.86,5-4.19,9.83-8.28,9.83-8.28,0,0,.52-.41.36,0s-.36,1.13-.36,1.13l-9.66,8.51s-5.78,4.96-7.23,5.35c-1.45.4-2.91.88-4.76.06s-2.75-2.13-2.75-2.38c0-.25,1.18-3.08,1.18-3.08Z"/>
          </g>
          <path class="cls-13" d="m27.62,432.24c-.05.01-.16-.53-.51-1.33-.35-.8-1-1.85-2.02-2.7-1.02-.85-2.17-1.31-3.01-1.51-.85-.21-1.4-.21-1.4-.27,0-.03.56-.11,1.45.05.88.15,2.1.59,3.17,1.49,1.07.89,1.72,2.01,2.02,2.86.31.85.34,1.41.31,1.42Z"/>
          <path class="cls-13" d="m44.5,416.65s-.07.09-.22.23c-.2.18-.42.38-.67.6-.68.58-1.52,1.31-2.51,2.17-2.23,1.89-5.14,4.35-8.37,7.08-1.64,1.37-3.18,2.73-4.82,3.66-1.62.94-3.37,1.34-4.79,1.14-1.43-.19-2.44-.91-2.96-1.5-.53-.6-.64-1.04-.64-1.04.03-.02.19.4.73.96.53.55,1.52,1.21,2.89,1.36,1.37.16,3.04-.24,4.62-1.17,1.59-.92,3.12-2.29,4.76-3.65,3.25-2.7,6.18-5.14,8.43-7.01,1.02-.83,1.88-1.53,2.58-2.1.27-.21.5-.39.71-.56.16-.12.25-.19.26-.18Z"/>
          <path class="cls-13" d="m29.24,423.25c-.06.07-.82-.48-1.78-1.11-.96-.63-1.77-1.11-1.73-1.19.04-.08.92.28,1.9.93.98.64,1.67,1.31,1.61,1.37Z"/>
          <path class="cls-13" d="m31.31,420.99c-.04.08-1-.38-2.19-.91-1.19-.53-2.17-.92-2.15-1,.02-.08,1.07.18,2.27.71,1.21.53,2.1,1.12,2.06,1.19Z"/>
          <path class="cls-13" d="m33.23,419.06c-.06.07-.93-.69-2.2-1.31-1.26-.63-2.4-.85-2.38-.95,0-.08,1.21.01,2.52.67,1.32.64,2.12,1.54,2.06,1.59Z"/>
          <path class="cls-13" d="m34.34,416.76c-.06.07-.87-.52-1.99-1.01-1.11-.5-2.09-.71-2.08-.81,0-.08,1.05,0,2.21.52,1.16.51,1.91,1.24,1.86,1.3Z"/>
          <path class="cls-13" d="m33.86,414.58s-.51-.22-1.19-.8c-.34-.29-.72-.66-1.09-1.12-.19-.23-.37-.48-.55-.75-.09-.13-.19-.27-.25-.46-.07-.18-.06-.44.1-.62.35-.33.78-.25,1.09-.13.32.13.58.33.8.55.43.45.63.98.73,1.41.1.44.1.81.1,1.05,0,.25-.03.38-.05.38-.06,0-.03-.55-.26-1.38-.12-.41-.33-.88-.72-1.27-.19-.19-.43-.36-.7-.47-.25-.11-.6-.11-.75.05-.15.15,0,.45.17.7.17.26.34.51.52.73.35.45.7.83,1.01,1.13.62.6,1.07.92,1.04.96Z"/>
          <path class="cls-13" d="m33.65,414.31s0-.15.11-.38c.1-.23.28-.56.57-.92.3-.35.71-.72,1.26-1,.27-.14.57-.26.91-.34.17-.03.36-.05.56,0,.2.04.41.22.46.45.07.47-.21.78-.41,1.02-.22.25-.47.46-.73.64-.51.34-1.05.52-1.5.6-.46.08-.83.05-1.08,0-.25-.04-.38-.1-.38-.12,0-.06.56.09,1.42-.11.42-.1.92-.28,1.38-.62.23-.16.46-.36.66-.6.2-.23.39-.52.34-.75-.04-.23-.36-.28-.65-.22-.29.07-.58.17-.84.3-.52.25-.92.58-1.23.89-.6.64-.79,1.18-.84,1.15Z"/>
          <path class="cls-13" d="m41.76,415.4c0,.05-.54-.24-1.36.07-.79.29-1.78,1.07-2.43,2.21-.65,1.15-.74,2.39-.64,3.24.1.86.33,1.37.28,1.39-.03.02-.33-.46-.5-1.35-.16-.88-.11-2.2.59-3.42.69-1.21,1.75-2.01,2.63-2.27.91-.28,1.47.12,1.43.14Z"/>
          <path class="cls-13" d="m36.05,421.71c.06.07-.67.78-1.63,1.59-.96.81-1.78,1.42-1.83,1.35-.06-.07.67-.78,1.63-1.59.96-.81,1.78-1.42,1.83-1.35Z"/>
          <g>
            <path class="cls-13" d="m37.96,420.7c.09,0,.2.2.26.46.05.26.03.49-.05.52-.08.03-.2-.17-.26-.46-.06-.28-.04-.51.05-.52Z"/>
            <path class="cls-13" d="m38.21,418.72c.08.03.1.26.04.52-.06.26-.18.46-.27.45-.09,0-.1-.24-.04-.52.07-.28.19-.48.27-.45Z"/>
            <path class="cls-13" d="m39.26,417.04c.07.07-.06.25-.2.48-.16.21-.35.35-.42.3-.07-.04,0-.27.18-.5.16-.24.4-.34.45-.28Z"/>
            <path class="cls-13" d="m40.96,416c.03.08-.15.24-.39.35-.24.11-.47.14-.52.07-.05-.07.13-.23.39-.35.26-.12.49-.15.52-.07Z"/>
            <path class="cls-13" d="m42.93,415.77c-.01.09-.23.16-.5.16-.26,0-.49-.07-.5-.15-.01-.09.21-.16.5-.16.29,0,.51.07.5.15Z"/>
          </g>
        </g>
        <g>
          <path class="cls-6" d="m161.56,162.51c-.61.75-1.5,8.69-1.5,8.69,0,0-14.65,24.96-16.69,25.34-2.04.38-10.92-17.34-10.92-17.34l-9.13,8.4s4.76,22.34,19.64,26.17c7.03,1.81,19.27-20.47,27.46-38.97.13-.3,4.36-10.37,4.36-10.37l-13.22-1.92Z"/>
          <g>
            <g>
              <path class="cls-6" d="m174.62,165.29s0,.11-.05.25c-.38,1.19-2.65,6.14-3.35,6.09-.79-.06-2.32-1.2-2.14-1.91.17-.71,3.04-6.14,3.04-6.14,0,0,.51-.83,2.09-.39.98.27.42,2.1.42,2.1Z"/>
              <path class="cls-6" d="m172.42,162.18s0,.11-.05.25c-.38,1.19-2.65,6.14-3.35,6.09-.79-.06-2.32-1.2-2.14-1.91.17-.71,3.04-6.14,3.04-6.14,0,0,.51-.83,2.09-.39.98.27.42,2.1.42,2.1Z"/>
              <path class="cls-6" d="m169.89,160s0,.11-.05.25c-.38,1.19-2.65,6.14-3.35,6.09-.79-.06-2.32-1.2-2.14-1.91.17-.71,3.04-6.14,3.04-6.14,0,0,.51-.83,2.09-.39.98.27.42,2.1.42,2.1Z"/>
              <path class="cls-6" d="m167.36,157.88s0,.11-.05.25c-.38,1.19-2.65,6.14-3.35,6.09-.79-.06-2.32-1.2-2.14-1.91.17-.71,3.04-6.14,3.04-6.14,0,0,.51-.83,2.09-.39.98.27.42,2.1.42,2.1Z"/>
              <path class="cls-12" d="m169.69,168.26c.09.03.67-1.01,1.3-2.32.63-1.31,1.07-2.4.98-2.43-.09-.03-.67,1.01-1.3,2.32-.63,1.31-1.07,2.4-.98,2.43Z"/>
              <path class="cls-12" d="m166.75,166.98c.09.04.89-1.45,1.8-3.32.91-1.88,1.57-3.43,1.49-3.47-.09-.04-.89,1.45-1.8,3.32-.91,1.88-1.57,3.43-1.49,3.47Z"/>
              <g class="cls-10">
                <path class="cls-12" d="m163.88,165.42c.09.04.89-1.45,1.8-3.32.91-1.88,1.57-3.43,1.49-3.47-.09-.04-.89,1.45-1.8,3.32-.91,1.88-1.57,3.43-1.49,3.47Z"/>
              </g>
            </g>
            <path class="cls-6" d="m161.58,172.36l-1-4.39c-.44-1.92-.12-3.93.9-5.62l.77-1.29,9.57,4.84s-2.39,3.11-4.8,1.28l1.76,3.78-7.2,1.39Z"/>
          </g>
          <path class="cls-12" d="m167.93,171.31c-.06,0,.04-.51-.09-1.36-.13-.83-.57-2.08-1.72-3l-.91-.74,1.12.36c.77.25,1.6.52,2.48.8h-.05c1.03.11,2.27-.2,2.87-1.2.04-.08.09-.17.11-.22l.14.32c-2.76-1.25-5.24-2.42-6.98-3.37-1.74-.94-2.76-1.61-2.73-1.67.04-.07,1.12.49,2.9,1.35,1.77.86,4.27,1.97,7.03,3.22l.22.1-.09.22c-.05.12-.1.21-.16.31-.36.6-.93,1.03-1.55,1.24-.61.22-1.25.23-1.82.18h-.03s-.03-.01-.03-.01c-.87-.3-1.7-.59-2.46-.86l.21-.37c1.23,1.06,1.63,2.42,1.7,3.31.06.91-.13,1.4-.16,1.39Z"/>
          <path class="cls-12" d="m170.45,167.08c.1.01-.08.53.04,1.24.07.33.33.73.73.76.41.04.86-.26,1.17-.74.64-1.01,1.28-1.93,1.67-2.6.4-.68.6-1.13.67-1.1.06.02-.02.52-.35,1.27-.33.76-.91,1.68-1.57,2.73-.34.53-.98,1.01-1.65.91-.71-.12-.99-.76-1.03-1.18-.04-.45.07-.78.14-.99.08-.21.15-.32.18-.31Z"/>
        </g>
        <path class="cls-4" d="m128.92,231s-8.16-20.07-8.12-20.45l2.11-7.47.86-4.32,2.76,3.2,13.47-14.08c.25.34-6.1-8.88-12.53-17.9-4.48-6.29-9.33-7.67-12.17-7.87-2.14-.63-3.61-.74-3.61-.74l-23.18-.2s-7.2-.38-13.83,5.07c-1.07.88-9.95,12.69-16.01,24.36l18.64,13.46,3.07-5.41v.11c.27,1.83,1.37,7.18,1.74,8.99,1.13,5.63,1.49,12.41-1.26,17.06,0,0-3.09,7.45-5.34,15.95h57.19s-1.84-4.96-3.8-9.79Z"/>
        <path class="cls-6" d="m82.89,222.61l-1.96-1.58c-.01-.11-.02-.18-.02-.18l-.08.1-12.95-10.4,5.55-9.15-13.4-9.79c.06.65-12.44,19.17-10.75,22.8,2.39,5.14,18.62,15.42,25.27,19.47-.71.1-3.87.56-5.37,1.06-1.69.56,3.83,2.02,5.16,2.29.52.11,1.59-.72,2.73-1.82.2.12.31.18.31.18l.36-.84c1.55-1.59,3.07-3.45,3.4-3.98.28-.43.26-2.39.16-4.45l1.57-3.72Z"/>
        <g>
          <g>
            <path class="cls-8" d="m154.58,416.13l-.07-1.89-19.17.55.17,6.24,1.19.04c5.28.13,26.83.32,30.32-.77,3.89-1.21-12.43-4.17-12.43-4.17Z"/>
            <g class="cls-9">
              <path d="m142.41,420.71c-.32-1.48-1.25-2.83-2.55-3.72-1.31-.89-2.89-1.33-4.5-1.17l.15,4.96,6.9-.07Z"/>
            </g>
          </g>
          <g class="cls-9">
            <path d="m162.56,417.84s5.73,1.37,5.05,2.26c-.68.89-22.48,1.46-32.11.93l.02-.4,25.43-.47s.51-2.26,1.62-2.33Z"/>
          </g>
          <path class="cls-13" d="m135.22,420.64s.11.02.33.02c.28,0,.59.02.94.03.94.01,2.1.03,3.47.05,2.93.02,6.99,0,11.46-.11,4.48-.12,8.52-.3,11.45-.47,1.37-.09,2.52-.16,3.47-.23.35-.03.66-.05.94-.08.21-.02.33-.03.33-.04,0,0-.11,0-.33,0-.28.01-.59.02-.94.04-.94.04-2.1.09-3.47.16-2.93.13-6.98.29-11.45.41-4.47.11-8.52.16-11.45.18-1.37,0-2.53.01-3.47.02-.35,0-.66,0-.94.01-.22,0-.33.01-.33.02Z"/>
          <path class="cls-13" d="m160.95,420.45c.07,0,.1-.77.6-1.56.48-.8,1.19-1.21,1.15-1.27-.02-.05-.82.3-1.35,1.16-.53.85-.46,1.68-.4,1.66Z"/>
          <path class="cls-13" d="m155.23,417.94c.05.03.31-.28.58-.7.27-.42.44-.78.38-.81-.05-.03-.31.28-.58.7-.27.42-.44.78-.38.81Z"/>
          <path class="cls-13" d="m153.66,417.22s.34-.15.66-.44c.32-.28.54-.55.5-.59-.04-.04-.34.15-.66.44-.32.28-.54.55-.5.59Z"/>
          <path class="cls-13" d="m152.64,415.57c0,.06.45.1,1,.09.55,0,1-.06,1-.12,0-.06-.45-.1-1-.09-.55,0-1,.06-1,.12Z"/>
          <path class="cls-13" d="m152.26,414.4c-.02.05.47.24,1.12.27.65.03,1.16-.12,1.14-.17-.01-.06-.52-.01-1.13-.04-.62-.02-1.11-.12-1.13-.06Z"/>
          <path class="cls-13" d="m155.83,416.37s.47.07,1.23-.04c.38-.05.82-.15,1.3-.3.24-.09.48-.15.74-.31.12-.08.25-.19.29-.36.05-.17-.06-.36-.2-.45-1.19-.53-2.34.11-2.76.68-.23.29-.33.58-.38.77-.04.2-.04.31-.02.31.04.01.07-.45.53-.99.23-.26.57-.52,1.03-.66.43-.13,1.05-.18,1.46.05.2.13.13.34-.08.47-.2.13-.46.21-.68.29-.46.16-.89.27-1.25.34-.73.14-1.2.15-1.2.19Z"/>
          <path class="cls-13" d="m156.15,416.42s.19-.28.12-.8c-.04-.25-.15-.55-.36-.82-.22-.25-.51-.59-1.04-.55-.28.04-.41.35-.36.54.03.2.13.37.22.5.19.28.4.51.6.67.4.34.7.46.72.44.02-.03-.25-.2-.6-.55-.17-.18-.36-.4-.53-.67-.18-.24-.3-.67,0-.73.31-.04.63.24.82.46.2.24.32.5.37.73.11.46,0,.76.04.77Z"/>
          <path class="cls-13" d="m135.46,415.77s.55-.06,1.41,0c.86.07,2.06.36,3.11,1.1,1.06.74,1.69,1.73,2,2.48.31.75.36,1.26.4,1.26.01,0,.02-.13-.01-.36-.03-.23-.1-.56-.24-.95-.27-.78-.91-1.82-2.01-2.6-1.1-.77-2.36-1.05-3.24-1.08-.44-.02-.8.01-1.05.05-.24.04-.38.08-.37.09Z"/>
          <path class="cls-13" d="m144.76,418.92c0,.06,1.24.21,2.79.18,1.55-.03,2.79-.23,2.79-.28,0-.06-1.25.04-2.79.07-1.54.03-2.78-.03-2.79.03Z"/>
          <path class="cls-13" d="m141.02,419.01s.11.24.24.51c.14.26.21.5.28.49.06,0,.09-.28-.07-.59-.16-.3-.41-.46-.45-.41Z"/>
          <path class="cls-13" d="m139.56,417.42s.08.22.29.41c.2.18.4.29.45.25.04-.04-.08-.22-.29-.41-.2-.18-.4-.29-.45-.25Z"/>
          <path class="cls-13" d="m137.52,416.72c.02.06.27.05.55.14.29.08.49.22.54.18.05-.03-.12-.28-.47-.38-.35-.1-.64.02-.62.07Z"/>
          <path class="cls-13" d="m136.08,416.41c-.02.06.09.14.25.2.16.05.31.05.33,0,.02-.06-.09-.14-.25-.2-.16-.05-.31-.05-.33,0Z"/>
        </g>
        <g>
          <path class="cls-13" d="m98.41,114.09c-2.19-1.94-5.69-2.21-8.15-.63-1.23.79-2.2,1.97-3.53,2.58-2.21,1.01-4.8.22-7.2.61-3.54.57-6.36,4.06-6.17,7.64.1,1.92.92,3.99-.01,5.67-.82,1.48-2.67,1.99-3.98,3.06-2.24,1.82-2.62,5.51-.79,7.73.7.85,1.65,1.48,2.25,2.41.94,1.47.81,3.34,1.05,5.07.24,1.73,1.24,3.68,2.98,3.79,1.4.09,2.66-1.08,4.06-.97,1.96.16,2.77,2.51,3.9,4.12,1.44,2.04,4.05,3.17,6.52,2.84,1.79-.24,3.55-1.19,5.3-.74,2.2.56,3.52,3.13,5.76,3.45,1.67.24,3.22-.87,4.45-2.01s2.5-2.45,4.16-2.75c2-.36,3.92.85,5.93,1.13,2.6.36,5.34-1.02,6.61-3.32,1.11-2,1.1-4.46,2.13-6.5.69-1.37,1.81-2.47,2.67-3.74.86-1.27,1.47-2.88.96-4.32-.36-1.04-1.24-1.82-1.67-2.84-.64-1.52-.17-3.24,0-4.88.17-1.64-.17-3.63-1.67-4.3-.62-.28-1.35-.28-1.92-.64-1.17-.73-1.11-2.4-1.21-3.77-.16-2-1.09-4.05-2.84-5.04-1.75-.99-4.33-.51-5.22,1.29"/>
          <path class="cls-8" d="m87.22,132.57c-1.79-3.28-2.06-7.35-.73-10.85,1.33-3.49,4.23-6.35,7.75-7.63,2.49-.9,5.2-1.02,7.85-.92,2.26.09,4.57.36,6.61,1.36,2.03,1,3.76,2.85,4.09,5.09"/>
          <g>
            <g>
              <path class="cls-6" d="m99.7,173.01h0c5.2.4,9.68-3.6,9.88-8.81.19-5,.36-10.06.36-10.06,0,0,7.58-.71,8.13-8.21.55-7.5.3-24.81.3-24.81h0c-8.46-4.26-18.56-3.61-26.41,1.7l-1.16.79.42,40.34c.05,4.76,3.73,8.7,8.48,9.06Z"/>
              <g>
                <path class="cls-13" d="m114.8,134.32c-.42-.43-.41-1.12.02-1.54.43-.42,1.12-.41,1.54.02.42.43.41,1.12-.02,1.54-.43.42-1.12.41-1.54-.02Z"/>
                <path class="cls-13" d="m117.72,133.06c-.13.12-.83-.49-1.86-.56-1.03-.08-1.82.42-1.92.28-.05-.06.08-.29.42-.52.34-.23.9-.43,1.55-.39.64.05,1.17.33,1.47.61.31.28.4.52.34.57Z"/>
              </g>
              <g>
                <path class="cls-13" d="m105,132.91c.49.35.61,1.03.27,1.52-.35.49-1.03.61-1.52.27-.49-.35-.61-1.03-.27-1.52.35-.49,1.03-.61,1.52-.27Z"/>
                <path class="cls-13" d="m106.45,133.3s-.63-.73-1.86-.56c-1.03-.08-1.82.42-1.92.28-.05-.06.08-.29.42-.52.34-.23.9-.43,1.55-.39.64.05,1.17.33,1.47.61.31.28.4.52.34.57Z"/>
              </g>
              <path class="cls-13" d="m110.12,141.32c0-.08.65-.17,1.69-.25.27-.01.49-.06.52-.21.06-.16-.03-.46-.15-.79-.22-.7-.45-1.41-.69-2.15-.95-3.06-1.59-5.58-1.43-5.63.16-.05,1.05,2.39,2,5.45.22.75.44,1.46.65,2.16.08.32.25.7.08,1.13-.09.22-.31.37-.49.4-.18.04-.33.03-.46.03-1.05-.03-1.7-.08-1.7-.16Z"/>
              <path class="cls-12" d="m109.96,154.04s-4.77.1-9.61-3.38c0,0,1.98,5.54,9.51,5.32l.1-1.95Z"/>
            </g>
            <path class="cls-13" d="m97.64,118.53c.28,3.1,2.92,5.81,6.01,6.18,1.84.22,3.84-.29,5.5.55,1.19.6,1.96,1.79,2.81,2.82.85,1.04,1.98,2.03,3.32,1.99.65-.02,1.25-.29,1.88-.44.63-.16,1.35-.19,1.86.2.82-2.24,1.45-4.63,1.11-6.99-.34-2.36-1.86-4.67-4.14-5.35-1.49-.44-3.1-.16-4.63-.43-1.26-.22-2.43-.8-3.6-1.33-1.95-.88-4.07-1.64-6.19-1.32s-4.15,2.06-4.1,4.2"/>
            <path class="cls-13" d="m91.32,139.05c2.72,2.18,6-3.48,7.45-7.03,1.45-3.55,1.9-7.47,2.11-11.34.07-1.27.08-2.66-.66-3.65-.78-1.05-1.13.24-1.97-.75-1.67-1.94-4.75-.89-6.27-.23-2.53,1.1-4.11,3.92-4.61,6.79-.5,2.87-.09,5.82.32,8.71.19,1.32.37,2.64.56,3.95.13.93.28,1.9.78,2.67s1.49,1.27,2.29.88"/>
            <g>
              <path class="cls-6" d="m91.22,132.88c0-.61-.48-1.12-1.08-1.13-1.4-.04-3.69.52-3.9,4.38-.3,5.52,5.01,4.14,5.02,3.98.01-.12-.02-5.09-.04-7.23Z"/>
              <path class="cls-12" d="m90.04,137.95s-.1.06-.27.13c-.16.06-.44.1-.72-.02-.57-.25-1.01-1.2-.98-2.2.01-.5.14-.98.34-1.36.19-.39.47-.66.76-.7.3-.05.49.14.55.29.07.16.02.27.05.28.01.01.12-.09.09-.32-.02-.11-.07-.24-.2-.36-.13-.11-.32-.18-.52-.17-.43,0-.83.38-1.05.8-.24.42-.4.96-.42,1.52-.03,1.11.49,2.19,1.27,2.46.38.12.71.02.89-.1.18-.13.21-.25.2-.26Z"/>
            </g>
          </g>
          <path class="cls-12" d="m107.48,142.65c-.38.65-.14,1.58.49,1.98.64.4,1.57.2,1.99-.42s.26-1.56-.35-2.01c-.61-.44-1.55-.31-2.02.27"/>
          <path class="cls-13" d="m110.92,143.72c.03.13-1.07.38-2.34-.08-1.27-.45-1.97-1.34-1.86-1.42.11-.11.89.53,2.03.93,1.14.42,2.15.42,2.16.57Z"/>
          <path class="cls-8" d="m96.85,114.21c-2.04-.29-3.5-2.28-3.84-4.31-.34-2.03.18-4.1.72-6.09,1.67,1.16,2.91,2.92,3.44,4.88.53,1.96.35,4.11-.5,5.95"/>
          <path class="cls-8" d="m96.83,113.9c-.49-1.47.39-3.14,1.71-3.95s2.96-.93,4.5-.79c.13.01.27.03.38.1.15.1.2.3.23.48.24,1.51-.81,2.98-2.15,3.72-1.34.74-2.9.9-4.42,1.04-.24.02-.49.04-.71-.06-.22-.1-.37-.38-.25-.59"/>
          <path class="cls-13" d="m124.16,123.81s-.03-.11-.13-.26c-.1-.15-.33-.34-.68-.38-.33-.05-.83.08-.96.54-.15.43.1,1.06.62,1.33.51.26,1.28.02,1.7-.55.43-.56.46-1.43.15-2.2-.58-1.56-2.59-2.7-4.47-2.22-.1.03-.21.07-.3.1l-1.39.43,1.14-.88c.7-.55.91-1.58.66-2.39-.24-.83-.95-1.43-1.71-1.73-1.56-.62-3.15-.03-4.22.62-.55.33-1.01.72-1.47.99-.46.27-.94.41-1.32.41-.8,0-1.1-.42-1.07-.42.02-.05.35.28,1.06.22.35-.03.76-.17,1.18-.45.43-.27.86-.68,1.43-1.05.56-.36,1.23-.71,2.02-.89.78-.19,1.7-.2,2.56.14.86.32,1.71,1.01,2.02,2.03.31.98.09,2.22-.82,2.95l-.25-.45c.11-.03.23-.07.35-.11,2.17-.55,4.4.74,5.05,2.55.33.88.31,1.92-.26,2.63-.54.69-1.5.99-2.21.61-.68-.39-.94-1.17-.72-1.75.1-.29.34-.51.58-.59.24-.09.48-.09.68-.05.4.08.65.33.74.53.08.2.05.31.04.31Z"/>
          <path class="cls-13" d="m69.23,132.72s.19-.05.54.03c.34.09.86.35,1.23.94.18.29.34.66.36,1.1.02.43-.12.92-.46,1.3-.34.39-.84.65-1.41.74-.56.08-1.22-.03-1.73-.47-.99-.92-1.05-2.51-.6-3.85.46-1.37,1.55-2.67,3.1-3.28.77-.3,1.58-.41,2.34-.65.76-.22,1.45-.64,1.81-1.34.37-.69.4-1.56.28-2.39-.11-.85-.42-1.67-.7-2.54-.28-.87-.54-1.77-.53-2.71,0-.94.35-1.88.96-2.55.6-.68,1.39-1.16,2.22-1.4.83-.24,1.68-.28,2.49-.18,1.63.17,2.98.99,4.3,1.2.66.11,1.3.03,1.84-.25.54-.28.98-.71,1.38-1.14.78-.86,1.52-1.74,2.44-2.13.89-.41,1.75-.47,2.43-.4.68.07,1.17.27,1.49.43.16.08.27.15.35.21.07.05.11.08.1.09-.02.06-.64-.43-1.95-.52-.64-.04-1.46.05-2.28.46-.84.39-1.51,1.21-2.3,2.12-.4.44-.85.92-1.46,1.25-.61.34-1.37.44-2.09.32-1.46-.22-2.76-1.01-4.29-1.15-1.49-.19-3.2.2-4.27,1.44-.53.6-.83,1.39-.83,2.22,0,.84.23,1.69.51,2.54.28.85.6,1.72.72,2.63.12.9.1,1.86-.35,2.7-.43.85-1.31,1.36-2.11,1.58-.81.25-1.61.36-2.31.62-1.4.53-2.42,1.72-2.86,2.98-.44,1.24-.37,2.68.44,3.44.82.73,2.1.45,2.67-.19.62-.65.47-1.57.15-2.1-.32-.56-.78-.83-1.09-.95-.32-.11-.51-.1-.51-.13Z"/>
          <path class="cls-13" d="m101.05,138.02c-.13.05-.28,0-.32-.11-.05-.11.03-.25.16-.3.13-.05.28,0,.32.11.05.11-.03.25-.16.3Z"/>
          <path class="cls-13" d="m103.02,137.86c-.14.02-.28-.09-.3-.25-.02-.16.07-.3.22-.32.14-.02.28.09.3.25.02.16-.07.3-.22.32Z"/>
          <path class="cls-13" d="m104.81,138.27c-.14-.02-.24-.18-.22-.36.02-.18.16-.31.3-.3.14.02.24.18.22.36-.02.18-.16.31-.3.3Z"/>
          <ellipse class="cls-13" cx="102.69" cy="139.25" rx=".26" ry=".25"/>
          <path class="cls-13" d="m115.15,138.52c-.14.02-.28-.09-.3-.25-.02-.16.08-.3.22-.32.14-.02.28.09.3.25.02.16-.08.3-.22.32Z"/>
          <path class="cls-13" d="m116.46,138.59c-.14-.05-.19-.25-.12-.45.07-.2.23-.33.37-.29.14.05.19.25.12.45-.07.2-.23.33-.37.29Z"/>
          <path class="cls-13" d="m115.8,140.4c-.14-.02-.24-.17-.21-.33.02-.16.16-.27.3-.25.14.02.24.17.21.33-.02.16-.16.27-.3.25Z"/>
        </g>
        <g>
          <path class="cls-13" d="m155.91,414.8l-22.56-163.46h0l-.63-10.55-56.45-2.68-2.35,8.89c-7.92,27.92-47.94,162.93-47.94,162.93l19.55,6.17,58.2-154.7,27.09,153.12,25.1.28Z"/>
          <g>
            <path class="cls-4" d="m129.84,239.21c-.14.01-.29-.31-.33-.72s.04-.76.19-.77c.14-.01.29.31.33.72.04.41-.04.76-.19.77Z"/>
            <path class="cls-4" d="m130.43,245.16c-.14.01-.33-.64-.41-1.46-.08-.82-.03-1.5.11-1.51.14-.01.33.64.41,1.46.08.82.03,1.5-.11,1.51Z"/>
            <path class="cls-4" d="m131.05,251.11c-.14.01-.33-.64-.41-1.46-.09-.82-.04-1.5.1-1.51.14-.01.33.64.41,1.46.09.82.04,1.5-.1,1.51Z"/>
            <path class="cls-4" d="m131.69,257.05c-.14.02-.33-.64-.42-1.46-.09-.82-.05-1.5.1-1.51.14-.02.33.64.42,1.46.09.82.05,1.5-.1,1.51Z"/>
            <path class="cls-4" d="m132.35,262.99c-.14.02-.33-.64-.43-1.46-.09-.82-.05-1.5.09-1.51.14-.02.33.64.43,1.46.09.82.05,1.5-.09,1.51Z"/>
            <path class="cls-4" d="m133.04,268.93c-.14.02-.34-.63-.43-1.45-.1-.82-.06-1.5.09-1.51.14-.02.34.63.43,1.45.1.82.06,1.5-.09,1.51Z"/>
            <path class="cls-4" d="m133.74,274.87c-.14.02-.34-.63-.44-1.45-.1-.82-.06-1.5.08-1.51.14-.02.34.63.44,1.45.1.82.06,1.5-.08,1.51Z"/>
            <path class="cls-4" d="m134.46,280.8c-.14.02-.34-.63-.44-1.45-.1-.82-.07-1.5.08-1.52.14-.02.34.63.44,1.45.1.82.07,1.5-.08,1.51Z"/>
            <path class="cls-4" d="m135.2,286.73c-.14.02-.34-.63-.44-1.45-.1-.82-.07-1.5.07-1.52.14-.02.34.63.44,1.45.1.82.07,1.5-.07,1.52Z"/>
            <path class="cls-4" d="m135.95,292.66c-.14.02-.34-.63-.45-1.45-.1-.82-.07-1.5.07-1.52.14-.02.34.63.45,1.45.1.82.07,1.5-.07,1.52Z"/>
            <path class="cls-4" d="m136.71,298.59c-.14.02-.34-.63-.45-1.45-.11-.82-.08-1.5.07-1.52.14-.02.34.63.45,1.45.11.82.08,1.5-.07,1.52Z"/>
            <path class="cls-4" d="m137.48,304.52c-.14.02-.35-.63-.45-1.45-.11-.82-.08-1.5.06-1.52s.35.63.45,1.45c.11.82.08,1.5-.06,1.52Z"/>
            <path class="cls-4" d="m138.27,310.45c-.14.02-.35-.63-.45-1.45-.11-.82-.08-1.5.06-1.52.14-.02.35.63.45,1.45.11.82.08,1.5-.06,1.52Z"/>
            <path class="cls-4" d="m139.06,316.37c-.14.02-.35-.63-.46-1.45-.11-.82-.08-1.5.06-1.52.14-.02.35.63.46,1.45.11.82.08,1.5-.06,1.52Z"/>
            <path class="cls-4" d="m139.85,322.3c-.14.02-.35-.63-.46-1.45-.11-.82-.08-1.5.06-1.52.14-.02.35.63.46,1.45.11.82.08,1.5-.06,1.52Z"/>
            <path class="cls-4" d="m140.65,328.22c-.14.02-.35-.63-.46-1.45-.11-.82-.08-1.5.06-1.52.14-.02.35.63.46,1.45.11.82.08,1.5-.06,1.52Z"/>
            <path class="cls-4" d="m141.46,334.15c-.14.02-.35-.63-.46-1.45-.11-.82-.09-1.5.06-1.52.14-.02.35.63.46,1.45.11.82.09,1.5-.06,1.52Z"/>
            <path class="cls-4" d="m142.28,340.06c-.14.02-.35-.62-.47-1.44-.12-.82-.1-1.5.05-1.51.14-.02.35.63.47,1.44.12.82.09,1.49-.05,1.51Z"/>
            <path class="cls-4" d="m143.15,345.97c-.14.02-.36-.62-.48-1.44-.12-.82-.1-1.49.04-1.51.14-.02.36.62.48,1.44.12.81.1,1.49-.04,1.51Z"/>
            <path class="cls-4" d="m144.04,351.87c-.14.02-.36-.62-.48-1.44-.12-.82-.11-1.5.03-1.52.14-.02.36.62.48,1.44.12.82.11,1.49-.03,1.52Z"/>
            <path class="cls-4" d="m144.93,357.78c-.14.02-.36-.62-.48-1.44-.12-.82-.11-1.49.03-1.52.14-.02.36.62.48,1.44.12.82.11,1.49-.03,1.52Z"/>
            <path class="cls-4" d="m145.83,363.68c-.14.02-.36-.62-.48-1.44-.12-.81-.11-1.49.03-1.51.14-.02.36.62.48,1.44.12.81.11,1.49-.03,1.51Z"/>
            <path class="cls-4" d="m146.73,369.59c-.14.02-.36-.62-.48-1.44-.12-.82-.11-1.49.03-1.51s.36.62.48,1.44c.12.82.11,1.49-.03,1.51Z"/>
            <path class="cls-4" d="m147.63,375.49c-.14.02-.36-.62-.48-1.44-.12-.82-.11-1.49.03-1.52.14-.02.36.62.48,1.44.12.82.11,1.49-.03,1.52Z"/>
            <path class="cls-4" d="m148.52,381.41c-.14.02-.36-.62-.48-1.44-.12-.82-.11-1.5.03-1.52.14-.02.36.62.48,1.44.12.82.11,1.5-.03,1.52Z"/>
            <path class="cls-4" d="m149.42,387.32c-.14.02-.36-.62-.48-1.44-.12-.82-.11-1.5.03-1.52.14-.02.36.62.48,1.44.12.82.11,1.49-.03,1.52Z"/>
            <path class="cls-4" d="m150.32,393.23c-.14.02-.36-.62-.48-1.44-.12-.82-.11-1.5.03-1.52.14-.02.36.62.48,1.44.12.82.11,1.5-.03,1.52Z"/>
            <path class="cls-4" d="m151.22,399.14c-.14.02-.36-.62-.48-1.44-.12-.82-.11-1.5.03-1.52.14-.02.36.62.48,1.44.12.82.11,1.5-.03,1.52Z"/>
            <path class="cls-4" d="m152.11,405.05c-.14.02-.36-.62-.48-1.44-.12-.82-.11-1.5.04-1.52.14-.02.36.62.48,1.44.12.82.11,1.5-.04,1.52Z"/>
            <path class="cls-4" d="m152.99,410.97c-.14.02-.36-.62-.48-1.44-.12-.82-.1-1.5.04-1.52.14-.02.36.62.48,1.44.12.82.1,1.5-.04,1.52Z"/>
            <path class="cls-4" d="m153.63,415.45c-.14.02-.3-.3-.36-.71-.06-.41.01-.76.15-.78.14-.02.3.3.36.71.06.41-.01.76-.15.78Z"/>
          </g>
          <g>
            <path class="cls-4" d="m44.14,411.83c.14.04.15.4.02.79-.12.39-.34.68-.47.64-.14-.04-.15-.4-.02-.79.12-.39.34-.68.47-.64Z"/>
            <path class="cls-4" d="m45.99,406.04c.14.04.04.73-.22,1.53-.26.8-.57,1.41-.71,1.37-.14-.04-.04-.73.22-1.53.26-.8.57-1.41.71-1.37Z"/>
            <path class="cls-4" d="m47.86,400.27c.14.04.04.73-.22,1.52-.26.8-.58,1.41-.72,1.36s-.04-.73.22-1.52c.26-.8.58-1.41.72-1.36Z"/>
            <path class="cls-4" d="m49.77,394.5c.14.05.03.73-.23,1.52-.26.8-.59,1.41-.73,1.36-.14-.05-.03-.73.23-1.52.26-.8.59-1.4.73-1.36Z"/>
            <path class="cls-4" d="m51.71,388.74c.14.05.03.73-.24,1.52-.27.8-.6,1.4-.73,1.36-.14-.05-.03-.73.24-1.52.27-.79.6-1.4.73-1.36Z"/>
            <path class="cls-4" d="m53.67,382.98c.14.05.03.73-.25,1.52-.27.79-.6,1.4-.74,1.35-.14-.05-.03-.73.25-1.52.27-.79.6-1.4.74-1.35Z"/>
            <path class="cls-4" d="m55.66,377.24c.14.05.02.73-.25,1.52-.28.79-.61,1.4-.74,1.35-.14-.05-.02-.73.25-1.52.28-.79.61-1.4.74-1.35Z"/>
            <path class="cls-4" d="m57.68,371.5c.14.05.02.73-.26,1.52-.28.79-.61,1.4-.75,1.35-.14-.05-.02-.73.26-1.52.28-.79.61-1.39.75-1.35Z"/>
            <path class="cls-4" d="m59.71,365.78c.14.05.02.73-.27,1.52-.28.79-.62,1.39-.76,1.34-.14-.05-.02-.73.27-1.52.28-.79.62-1.39.76-1.34Z"/>
            <path class="cls-4" d="m61.77,360.05c.14.05.01.73-.27,1.52-.29.79-.63,1.39-.76,1.34-.14-.05-.01-.73.27-1.52.28-.79.63-1.39.76-1.34Z"/>
            <path class="cls-4" d="m63.85,354.34c.14.05.01.73-.28,1.52-.29.79-.63,1.39-.77,1.34-.14-.05-.01-.73.28-1.52.29-.79.63-1.39.77-1.34Z"/>
            <path class="cls-4" d="m65.95,348.63c.13.05,0,.73-.28,1.52-.29.79-.63,1.39-.77,1.34-.13-.05,0-.73.28-1.52.29-.79.63-1.39.77-1.34Z"/>
            <path class="cls-4" d="m68.06,342.92c.13.05,0,.73-.29,1.52-.29.79-.64,1.38-.77,1.33-.13-.05,0-.73.29-1.52.29-.79.64-1.38.77-1.33Z"/>
            <path class="cls-4" d="m70.19,337.23c.13.05,0,.73-.29,1.52-.29.79-.64,1.38-.78,1.33-.13-.05,0-.73.29-1.52.29-.79.64-1.38.78-1.33Z"/>
            <path class="cls-4" d="m72.34,331.53c.13.05,0,.73-.29,1.51-.3.79-.65,1.38-.78,1.33-.13-.05,0-.73.29-1.51.3-.79.65-1.38.78-1.33Z"/>
            <path class="cls-4" d="m74.5,325.85c.13.05,0,.73-.3,1.51-.3.79-.65,1.38-.78,1.33-.13-.05,0-.73.3-1.51.3-.78.65-1.38.78-1.33Z"/>
            <path class="cls-4" d="m76.67,320.16c.13.05,0,.73-.3,1.51-.3.78-.65,1.38-.79,1.33s0-.73.3-1.51c.3-.78.65-1.38.79-1.33Z"/>
            <path class="cls-4" d="m78.85,314.48c.13.05,0,.73-.3,1.51-.3.78-.65,1.38-.79,1.33-.13-.05,0-.73.3-1.51.3-.78.65-1.38.79-1.33Z"/>
            <path class="cls-4" d="m81.04,308.81c.13.05,0,.73-.31,1.51-.3.78-.66,1.38-.79,1.32-.13-.05,0-.73.31-1.51.3-.78.66-1.38.79-1.32Z"/>
            <path class="cls-4" d="m83.24,303.14c.13.05,0,.73-.31,1.51-.3.78-.66,1.38-.79,1.32-.13-.05,0-.73.31-1.51.3-.78.66-1.38.79-1.32Z"/>
            <path class="cls-4" d="m85.44,297.47c.13.05,0,.73-.31,1.51-.3.78-.66,1.37-.79,1.32-.13-.05,0-.73.31-1.51.3-.78.66-1.37.79-1.32Z"/>
            <path class="cls-4" d="m87.65,291.8c.13.05,0,.73-.31,1.51-.31.78-.66,1.37-.8,1.32-.13-.05,0-.73.31-1.51.31-.78.66-1.37.8-1.32Z"/>
            <path class="cls-4" d="m89.87,286.14c.13.05,0,.73-.31,1.51-.31.78-.66,1.37-.8,1.32-.13-.05,0-.73.31-1.51.31-.78.66-1.37.8-1.32Z"/>
            <path class="cls-4" d="m92.08,280.47c.13.05,0,.73-.31,1.51-.31.78-.66,1.37-.8,1.32-.13-.05,0-.73.31-1.51.31-.78.66-1.37.8-1.32Z"/>
            <path class="cls-4" d="m94.4,274.85c.13.06-.03.73-.35,1.5-.33.77-.7,1.35-.83,1.3s.02-.73.35-1.5c.33-.77.7-1.36.83-1.3Z"/>
            <path class="cls-4" d="m97.01,269.36c.13.07-.07.73-.44,1.48-.37.75-.78,1.31-.91,1.25-.13-.06.07-.72.44-1.48.38-.75.78-1.31.91-1.24Z"/>
            <path class="cls-4" d="m100.24,264.22c.11.09-.18.72-.65,1.4-.47.68-.96,1.17-1.08,1.1-.12-.07.17-.7.65-1.4.48-.7.97-1.19,1.08-1.1Z"/>
            <path class="cls-4" d="m103.72,261.4c.04.14-.23.34-.57.52-.34.18-.67.28-.76.16-.08-.11.13-.42.51-.62.39-.21.77-.2.81-.06Z"/>
          </g>
        </g>
      </g>
      <g>
        <g>
          <path class="cls-8" d="m94.58,175.73l-35.77-.97H22.34c-4.78,0-8.66,4.03-8.66,8.99v24.74c0,17.18,3.89,34.2,11.9,49.23,6.74,12.65,17.17,25.67,33.23,33.94,14.77-5.55,25.79-20.33,32.52-32.98,8.01-15.03,11.9-32.05,11.9-49.23v-24.74c0-4.97-3.88-8.99-8.66-8.99Z"/>
          <polygon class="cls-1" points="57.58 233.62 44.34 222.67 48.8 217.27 56.78 223.88 69.84 208.9 75.11 213.49 57.58 233.62"/>
        </g>
        <g class="cls-9">
          <path d="m94.58,175.73l-35.77-.97H22.34c-4.78,0-8.66,4.03-8.66,8.99v24.74c0,17.18,3.89,34.2,11.9,49.23,6.74,12.65,17.17,25.67,33.23,33.94,14.77-5.55,25.79-20.33,32.52-32.98,8.01-15.03,11.9-32.05,11.9-49.23v-24.74c0-4.97-3.88-8.99-8.66-8.99Zm-1.18,35.56c0,13.59-3.08,27.06-9.41,38.95-5.33,10.01-13.17,20.31-25.88,26.85-12.71-6.55-20.25-16.85-25.58-26.85-6.34-11.89-9.41-25.36-9.41-38.95v-19.57c0-3.93,3.07-7.12,6.85-7.12h56.6c3.78,0,6.85,3.19,6.85,7.12v19.57Z"/>
        </g>
      </g>
    </g>
  </g>
</svg>