<?xml version="1.0" encoding="UTF-8"?>
<svg xmlns="http://www.w3.org/2000/svg" xmlns:xlink="http://www.w3.org/1999/xlink" viewBox="0 0 459.42 361.22">
  <defs>
    <style>
      .cls-1 {
        fill: #fff;
      }

      .cls-2 {
        fill: #e3ebfc;
      }

      .cls-3 {
        fill: #e0e9fc;
      }

      .cls-4 {
        fill: #c2cef2;
      }

      .cls-5 {
        clip-path: url(#clippath-2);
      }

      .cls-6 {
        fill: #d0dbf7;
      }

      .cls-7 {
        fill: #edf0fc;
      }

      .cls-8 {
        clip-path: url(#clippath-1);
      }

      .cls-9 {
        fill: #cad2f9;
      }

      .cls-10 {
        fill: #0046a0;
        opacity: .1;
      }

      .cls-11 {
        opacity: .3;
      }

      .cls-12 {
        clip-path: url(#clippath);
      }

      .cls-13 {
        fill: none;
      }

      .cls-14 {
        font-family: Roboto-Bold, Roboto;
        font-size: 51.98px;
        font-weight: 700;
        letter-spacing: .05em;
      }

      .cls-14, .cls-15 {
        fill: #eb725f;
      }

      .cls-16 {
        clip-path: url(#clippath-3);
      }

      .cls-17 {
        fill: #f9ab43;
      }

      .cls-18 {
        fill: #eef1ff;
      }

      .cls-19 {
        fill: #e2e6ff;
      }

      .cls-20 {
        fill: #f9a9a0;
      }

      .cls-21 {
        fill: #f5f9ff;
      }

      .cls-22 {
        fill: #6e7fdd;
      }

      .cls-23 {
        fill: #ffcf74;
      }

      .cls-24 {
        fill: #f2f2f2;
      }
    </style>
    <clipPath id="clippath">
      <path class="cls-13" d="m380.83,335.05s-10.72-48.25,56.04-62.44c0,0,5.37,52.46-56.04,62.44Z"/>
    </clipPath>
    <clipPath id="clippath-1">
      <path class="cls-13" d="m85.32,265.07s-63.25-9.69-49.07-96.91c0,0,65.81,18.12,49.07,96.91Z"/>
    </clipPath>
    <clipPath id="clippath-2">
      <polygon class="cls-13" points="192.18 143.11 122.33 143.11 147.49 50.76 167.02 50.76 192.18 143.11"/>
    </clipPath>
    <clipPath id="clippath-3">
      <polygon class="cls-13" points="403.24 341.09 283.05 341.09 326.35 182.19 359.95 182.19 403.24 341.09"/>
    </clipPath>
  </defs>
  <g id="BACKGROUND">
    <g>
      <polygon class="cls-9" points="47.56 128.17 47.56 123.81 44.66 123.81 44.66 128.17 40.29 128.17 40.29 131.08 44.66 131.08 44.66 135.44 47.56 135.44 47.56 131.08 51.93 131.08 51.93 128.17 47.56 128.17"/>
      <polygon class="cls-9" points="101.22 55.64 101.22 50.06 97.51 50.06 97.51 55.64 91.93 55.64 91.93 59.35 97.51 59.35 97.51 64.93 101.22 64.93 101.22 59.35 106.8 59.35 106.8 55.64 101.22 55.64"/>
      <polygon class="cls-9" points="224.39 113.14 224.39 102.95 217.62 102.95 217.62 113.14 207.43 113.14 207.43 119.91 217.62 119.91 217.62 130.1 224.39 130.1 224.39 119.91 234.58 119.91 234.58 113.14 224.39 113.14"/>
      <polygon class="cls-9" points="366.76 43.39 366.76 39.02 363.86 39.02 363.86 43.39 359.49 43.39 359.49 46.29 363.86 46.29 363.86 50.65 366.76 50.65 366.76 46.29 371.13 46.29 371.13 43.39 366.76 43.39"/>
      <polygon class="cls-9" points="426.21 67.94 426.21 62.36 422.5 62.36 422.5 67.94 416.92 67.94 416.92 71.65 422.5 71.65 422.5 77.23 426.21 77.23 426.21 71.65 431.79 71.65 431.79 67.94 426.21 67.94"/>
      <polygon class="cls-9" points="27.25 93.36 27.25 83.17 20.48 83.17 20.48 93.36 10.29 93.36 10.29 100.13 20.48 100.13 20.48 110.32 27.25 110.32 27.25 100.13 37.44 100.13 37.44 93.36 27.25 93.36"/>
    </g>
    <g>
      <path class="cls-18" d="m297.02,1.93c0,1.06-.86,1.93-1.92,1.93s-1.93-.86-1.93-1.93.86-1.93,1.93-1.93,1.92.86,1.92,1.93Z"/>
      <circle class="cls-18" cx="159.01" cy="17.32" r="3.65"/>
      <circle class="cls-18" cx="37.44" cy="44.84" r="3.65"/>
      <path class="cls-18" d="m438.92,98.3c0,1.06-.86,1.93-1.93,1.93s-1.92-.86-1.92-1.93.86-1.93,1.92-1.93,1.93.86,1.93,1.93Z"/>
      <path class="cls-18" d="m445,261.04c0,1.06-.86,1.93-1.92,1.93s-1.93-.86-1.93-1.93.86-1.93,1.93-1.93,1.92.86,1.92,1.93Z"/>
      <circle class="cls-18" cx="448.33" cy="305.51" r="3.65"/>
      <circle class="cls-18" cx="6.5" cy="175.94" r="3.65"/>
      <path class="cls-18" d="m106.32,3.85c0,1.06-.86,1.93-1.92,1.93s-1.93-.86-1.93-1.93.86-1.93,1.93-1.93,1.92.86,1.92,1.93Z"/>
      <path class="cls-18" d="m18.36,317.91c0,1.06-.86,1.93-1.92,1.93s-1.93-.86-1.93-1.93.86-1.93,1.93-1.93,1.92.86,1.92,1.93Z"/>
    </g>
  </g>
  <g id="OBJECTS">
    <ellipse class="cls-7" cx="229.71" cy="344.16" rx="229.71" ry="17.06"/>
    <g>
      <g>
        <path class="cls-15" d="m380.83,335.05s-10.72-48.25,56.04-62.44c0,0,5.37,52.46-56.04,62.44Z"/>
        <g class="cls-12">
          <path class="cls-20" d="m442.04,283.29l.1-.54c-.09-.02-8.65-1.47-18.7.71,3.62-2.85,7.51-5.69,11.74-8.47l-.3-.46c-7.26,4.77-13.58,9.71-19.09,14.61.87-11.39,4.5-18.67,4.54-18.74l-.49-.25c-.04.08-3.85,7.67-4.64,19.51-2.47,2.22-4.76,4.42-6.91,6.6-.02.01-.04.02-.06.03v.02c-1.71,1.75-3.33,3.48-4.85,5.17-1.44-14.02,2.84-23.8,2.88-23.9l-.5-.22c-.05.1-4.49,10.23-2.88,24.67-1.8,2.03-3.45,4.02-4.98,5.94,0,0,0,0-.01,0h0c-1.21,1.53-2.34,3.02-3.39,4.46-.99-12.63-.43-24.61-.42-24.73l-.55-.03c0,.12-.59,12.54.47,25.43-3.8,5.28-6.5,9.85-8.31,13.25-2.33-11.01-1.63-26.12-1.62-26.28l-.55-.03c0,.16-.74,15.93,1.77,27.06-1.8,3.47-2.59,5.54-2.62,5.62l.51.19c.04-.11,1.63-4.26,5.49-10.73,15.53-4.98,32.24-1.59,32.41-1.56l.11-.53c-.17-.03-16.6-3.36-32.11,1.39,2.26-3.73,5.27-8.18,9.12-13.05,13.87-4.77,34.51-1.78,34.72-1.75l.08-.54c-.21-.03-20.22-2.92-34.18,1.51,2.8-3.49,6.04-7.17,9.77-10.95,11.39-5.73,32.64-4.9,32.85-4.89l.02-.55c-.2,0-20.01-.78-31.77,4.33,3.76-3.74,8-7.56,12.75-11.37,10.41-2.51,19.49-.96,19.58-.95Z"/>
        </g>
      </g>
      <g>
        <path class="cls-15" d="m85.32,265.07s-63.25-9.69-49.07-96.91c0,0,65.81,18.12,49.07,96.91Z"/>
        <g class="cls-8">
          <path class="cls-20" d="m51.57,166.95l-.6-.37c-.06.1-5.82,9.75-7.91,22.9-1.74-5.7-3.34-11.73-4.71-18.13l-.69.15c2.35,10.99,5.35,20.94,8.67,29.89-13.34-6.39-20.41-14.19-20.49-14.27l-.53.47c.07.08,7.45,8.24,21.36,14.75,1.52,4.02,3.1,7.82,4.73,11.43,0,.03,0,.06,0,.09h.03c1.3,2.89,2.63,5.66,3.96,8.29-17.59-4.84-27.39-14.59-27.48-14.68l-.5.5c.1.1,10.24,10.22,28.42,15.05,1.61,3.13,3.23,6.04,4.83,8.79,0,0,0,.01,0,.02h.01c1.27,2.18,2.54,4.24,3.78,6.17-15.7-4.73-29.89-11.02-30.04-11.09l-.29.65c.15.06,14.85,6.59,30.91,11.36,4.59,7.06,8.84,12.46,12.09,16.23-14.38-2.36-32.29-10.29-32.47-10.37l-.29.65c.19.08,18.87,8.36,33.48,10.56,3.34,3.8,5.46,5.73,5.55,5.8l.47-.53c-.12-.1-4.37-3.97-10.37-11.66,1.28-21.07,13.2-39.65,13.32-39.84l-.59-.38c-.12.18-11.84,18.46-13.37,39.39-3.44-4.48-7.4-10.19-11.47-17.12.75-18.97,14.04-42.48,14.17-42.72l-.61-.35c-.13.23-13.01,23.02-14.2,41.96-2.89-5.01-5.82-10.65-8.64-16.92-1.58-16.43,9.39-41.68,9.5-41.94l-.65-.28c-.11.24-10.32,23.78-9.68,40.36-2.75-6.29-5.38-13.19-7.74-20.71,1.85-13.74,7.98-23.97,8.04-24.08Z"/>
        </g>
      </g>
      <g>
        <path class="cls-17" d="m102.23,331.22c-2.25-.85-4.44-1.92-6.58-3.02-5.59-2.86-10.93-6.2-16.02-9.86-7.47-5.38-14.42-11.49-20.71-18.22-7.91-8.46-14.79-17.89-20.45-27.99-6.88-12.28-11.97-25.54-15.34-39.19-.47-1.9-.9-3.81-1.31-5.73-.26-1.21,1.61-1.71,1.87-.5,2.98,14.01,7.65,27.66,14.26,40.38,5.42,10.42,12.09,20.19,19.89,28.97,6.22,7.01,13.14,13.42,20.64,19.04,5.24,3.93,10.75,7.5,16.53,10.58,1.75.93,3.53,1.82,5.34,2.65.54.24,1.08.48,1.63.71-.28-.12.23.09.35.14.11.04.22.08.32.13.04.02.07.03.11.04,1.15.43.65,2.3-.51,1.86h0Z"/>
        <g>
          <path class="cls-17" d="m27.48,244.47s9.11-14.55-10.53-39.96c0,0-4.02,28.99,10.53,39.96Z"/>
          <path class="cls-23" d="m18.79,210.57c.81,2.4,1.6,4.8,2.35,7.22.74,2.41,1.48,4.83,2.1,7.27.7,2.42,1.27,4.88,1.83,7.34.29,1.23.55,2.46.78,3.71.29,1.23.45,2.49.71,3.73-.14-2.53-.42-5.06-.87-7.56-.43-2.5-1.01-4.98-1.66-7.43-.7-2.44-1.43-4.87-2.3-7.26-.87-2.38-1.82-4.74-2.95-7.01Z"/>
        </g>
        <g>
          <g>
            <path class="cls-17" d="m34.57,262.15s-2.06-17.04-33.32-24.45c0,0,15.1,25.07,33.32,24.45Z"/>
            <path class="cls-23" d="m6.5,241.25c2.14,1.36,4.27,2.72,6.36,4.13,2.09,1.41,4.18,2.83,6.21,4.33,2.07,1.44,4.06,3,6.04,4.56,1,.78,1.98,1.57,2.94,2.39,1,.78,1.91,1.65,2.9,2.45-1.7-1.88-3.51-3.67-5.43-5.33-1.91-1.67-3.92-3.23-5.96-4.74-2.08-1.46-4.18-2.89-6.35-4.19-2.18-1.3-4.4-2.54-6.7-3.6Z"/>
          </g>
          <g>
            <path class="cls-17" d="m34.8,261.65s14.71-8.85,8.68-40.41c0,0-16.69,24.04-8.68,40.41Z"/>
            <path class="cls-23" d="m42.39,227.48c-.36,2.51-.74,5.01-1.17,7.5-.43,2.49-.87,4.97-1.41,7.44-.47,2.48-1.07,4.93-1.69,7.38-.3,1.23-.63,2.45-.98,3.66-.3,1.23-.73,2.42-1.05,3.65,1.02-2.32,1.92-4.7,2.64-7.14.74-2.43,1.35-4.9,1.88-7.38.48-2.49.93-4.99,1.23-7.51.3-2.52.52-5.05.54-7.59Z"/>
          </g>
        </g>
        <g>
          <g>
            <path class="cls-17" d="m48.35,285.58s-5.08-16.4-37.16-18.08c0,0,19.35,21.95,37.16,18.08Z"/>
            <path class="cls-23" d="m16.99,270.05c2.35.95,4.69,1.92,7,2.93,2.31,1.01,4.62,2.03,6.88,3.15,2.3,1.05,4.53,2.22,6.76,3.4,1.12.58,2.23,1.19,3.32,1.83,1.12.58,2.18,1.28,3.29,1.89-2.01-1.55-4.11-2.99-6.3-4.27-2.18-1.3-4.44-2.48-6.72-3.59-2.31-1.06-4.63-2.1-7-2.99-2.38-.89-4.78-1.71-7.24-2.34Z"/>
          </g>
          <g>
            <path class="cls-17" d="m48.49,285.04s12.88-11.35,1.3-41.31c0,0-12.12,26.64-1.3,41.31Z"/>
            <path class="cls-23" d="m49.83,250.08c.09,2.53.17,5.06.19,7.59.02,2.53.04,5.05-.06,7.57-.02,2.52-.17,5.04-.34,7.56-.08,1.26-.18,2.52-.31,3.77-.07,1.26-.28,2.51-.38,3.78.59-2.47,1.04-4.97,1.32-7.49.3-2.52.45-5.06.53-7.6.03-2.54.02-5.08-.14-7.61-.16-2.53-.39-5.06-.83-7.56Z"/>
          </g>
        </g>
        <g>
          <g>
            <path class="cls-17" d="m67.68,307.59s-9-14.62-40.49-8.27c0,0,24.2,16.45,40.49,8.27Z"/>
            <path class="cls-23" d="m33.44,300.35c2.51.34,5.01.69,7.51,1.09,2.49.41,4.98.82,7.45,1.34,2.48.45,4.94,1.02,7.39,1.61,1.23.29,2.45.6,3.67.95,1.23.29,2.43.7,3.66,1.01-2.33-1-4.72-1.87-7.16-2.57-2.44-.72-4.91-1.3-7.4-1.81-2.5-.45-5-.88-7.53-1.15-2.52-.27-5.06-.47-7.59-.47Z"/>
          </g>
          <g>
            <path class="cls-17" d="m67.68,307.04s9.66-14.19-9.01-40.33c0,0-5.11,28.81,9.01,40.33Z"/>
            <path class="cls-23" d="m60.28,272.84c.72,2.43,1.42,4.86,2.07,7.3.65,2.44,1.29,4.88,1.83,7.35.61,2.45,1.09,4.93,1.55,7.41.24,1.24.45,2.48.64,3.73.24,1.24.35,2.5.57,3.75-.04-2.53-.23-5.07-.58-7.59-.34-2.52-.83-5.01-1.38-7.49-.61-2.47-1.24-4.92-2.03-7.34-.78-2.41-1.64-4.81-2.68-7.12Z"/>
          </g>
        </g>
        <g>
          <g>
            <path class="cls-17" d="m89.25,324s-11.37-12.86-41.31-1.22c0,0,26.66,12.07,41.31,1.22Z"/>
            <path class="cls-23" d="m54.28,322.73c2.53-.1,5.06-.18,7.58-.21,2.53-.03,5.05-.05,7.57.04,2.52.01,5.04.16,7.56.32,1.26.07,2.52.17,3.77.3,1.26.07,2.51.28,3.78.37-2.47-.59-4.97-1.03-7.5-1.31-2.52-.29-5.06-.44-7.6-.52-2.54-.02-5.08-.01-7.61.15-2.53.16-5.06.4-7.56.84Z"/>
          </g>
          <g>
            <path class="cls-17" d="m89.16,323.46s7.09-15.64-15.78-38.2c0,0-.11,29.26,15.78,38.2Z"/>
            <path class="cls-23" d="m76.01,291.03c1.13,2.27,2.23,4.54,3.29,6.84,1.06,2.29,2.11,4.59,3.06,6.92,1.02,2.31,1.91,4.67,2.8,7.03.45,1.18.87,2.37,1.27,3.57.45,1.18.78,2.4,1.21,3.6-.48-2.49-1.09-4.96-1.87-7.38-.77-2.42-1.67-4.8-2.64-7.14-1.02-2.33-2.07-4.64-3.25-6.88-1.18-2.24-2.44-4.45-3.86-6.56Z"/>
          </g>
        </g>
      </g>
      <g>
        <path class="cls-17" d="m353.58,306.26c2.2-.98,4.31-2.19,6.39-3.41,5.4-3.19,10.54-6.85,15.39-10.81,7.13-5.83,13.7-12.35,19.57-19.44,7.38-8.92,13.67-18.75,18.72-29.18,6.13-12.67,10.4-26.21,12.94-40.05.35-1.93.67-3.86.96-5.8.18-1.22-1.71-1.61-1.89-.38-2.12,14.17-5.96,28.07-11.79,41.17-4.78,10.73-10.85,20.88-18.1,30.12-5.79,7.37-12.3,14.19-19.44,20.26-4.99,4.24-10.28,8.14-15.86,11.56-1.69,1.04-3.41,2.03-5.17,2.96-.52.28-1.05.55-1.58.81.27-.13-.22.11-.34.16-.1.05-.21.09-.32.15-.03.02-.07.03-.11.05-1.12.5-.51,2.33.63,1.83h0Z"/>
        <g>
          <path class="cls-17" d="m422.94,215.15s-9.98-13.97,8.09-40.53c0,0,5.77,28.69-8.09,40.53Z"/>
          <path class="cls-23" d="m429.56,180.79c-.66,2.45-1.31,4.89-1.91,7.34-.59,2.45-1.18,4.91-1.66,7.39-.55,2.46-.97,4.95-1.38,7.44-.21,1.24-.4,2.49-.55,3.75-.22,1.25-.3,2.51-.49,3.77-.02-2.53.11-5.08.41-7.6.28-2.52.71-5.03,1.2-7.52.55-2.48,1.13-4.95,1.86-7.38.73-2.43,1.53-4.84,2.52-7.18Z"/>
        </g>
        <g>
          <g>
            <path class="cls-17" d="m416.93,233.22s1.03-17.14,31.78-26.42c0,0-13.56,25.93-31.78,26.42Z"/>
            <path class="cls-23" d="m443.68,210.67c-2.06,1.48-4.09,2.98-6.1,4.51-2.01,1.54-4.01,3.07-5.94,4.7-1.98,1.57-3.87,3.24-5.75,4.91-.95.83-1.88,1.69-2.78,2.57-.95.84-1.81,1.76-2.75,2.62,1.58-1.98,3.28-3.88,5.1-5.65,1.81-1.78,3.72-3.46,5.67-5.09,1.99-1.58,3.99-3.14,6.09-4.57,2.09-1.43,4.23-2.8,6.47-4Z"/>
          </g>
          <g>
            <path class="cls-17" d="m416.67,232.74s-15.22-7.95-11.11-39.81c0,0,18.12,22.98,11.11,39.81Z"/>
            <path class="cls-23" d="m407.03,199.1c.51,2.48,1.04,4.95,1.62,7.41.58,2.46,1.17,4.91,1.86,7.34.62,2.45,1.37,4.85,2.13,7.26.37,1.21.77,2.4,1.2,3.59.37,1.21.87,2.37,1.27,3.58-1.16-2.25-2.2-4.58-3.07-6.96-.89-2.38-1.64-4.81-2.33-7.25-.63-2.46-1.23-4.93-1.68-7.43-.45-2.5-.82-5.01-1-7.54Z"/>
          </g>
        </g>
        <g>
          <g>
            <path class="cls-17" d="m404.6,257.45s4.08-16.68,36-20.3c0,0-17.98,23.09-36,20.3Z"/>
            <path class="cls-23" d="m434.96,240.05c-2.29,1.09-4.56,2.2-6.81,3.35-2.25,1.15-4.49,2.31-6.68,3.56-2.23,1.19-4.39,2.49-6.54,3.8-1.08.65-2.15,1.32-3.2,2.03-1.09.65-2.09,1.41-3.17,2.09,1.91-1.67,3.92-3.23,6.03-4.65,2.1-1.43,4.28-2.74,6.49-3.99,2.24-1.2,4.49-2.37,6.81-3.41,2.32-1.03,4.67-2,7.08-2.77Z"/>
          </g>
          <g>
            <path class="cls-17" d="m404.43,256.92s-13.55-10.54-3.8-41.15c0,0,13.71,25.85,3.8,41.15Z"/>
            <path class="cls-23" d="m400.97,222.1c.06,2.53.14,5.06.27,7.58.13,2.52.27,5.04.51,7.55.17,2.52.48,5.02.79,7.52.15,1.25.33,2.5.54,3.75.15,1.26.43,2.49.61,3.75-.74-2.43-1.34-4.9-1.78-7.4-.45-2.5-.75-5.02-.99-7.55-.18-2.53-.33-5.07-.32-7.61,0-2.54.09-5.08.37-7.6Z"/>
          </g>
        </g>
        <g>
          <g>
            <path class="cls-17" d="m386.64,280.59s8.1-15.14,39.92-10.71c0,0-23.16,17.89-39.92,10.71Z"/>
            <path class="cls-23" d="m420.38,271.29c-2.49.49-4.96.99-7.43,1.55-2.46.56-4.92,1.12-7.36,1.79-2.45.59-4.87,1.32-7.28,2.06-1.21.36-2.41.75-3.6,1.17-1.21.36-2.38.85-3.59,1.23,2.27-1.14,4.6-2.15,6.99-3,2.39-.87,4.82-1.59,7.28-2.25,2.47-.6,4.94-1.18,7.44-1.61,2.5-.43,5.02-.77,7.55-.92Z"/>
          </g>
          <g>
            <path class="cls-17" d="m386.61,280.04s-10.5-13.58,6.55-40.8c0,0,6.85,28.45-6.55,40.8Z"/>
            <path class="cls-23" d="m391.92,245.45c-.57,2.47-1.12,4.94-1.63,7.41-.5,2.48-.99,4.95-1.38,7.44-.46,2.48-.79,4.98-1.1,7.49-.17,1.25-.3,2.51-.41,3.76-.17,1.26-.2,2.52-.34,3.78-.11-2.53-.08-5.08.12-7.61.19-2.53.52-5.05.92-7.56.46-2.5.94-4.99,1.58-7.45.63-2.46,1.35-4.9,2.25-7.27Z"/>
          </g>
        </g>
        <g>
          <g>
            <path class="cls-17" d="m366.1,298.28s10.57-13.53,41.16-3.73c0,0-25.88,13.66-41.16,3.73Z"/>
            <path class="cls-23" d="m400.93,294.89c-2.53.06-5.06.13-7.58.25-2.52.13-5.04.26-7.55.5-2.52.17-5.02.47-7.53.78-1.25.15-2.5.33-3.75.53-1.26.15-2.49.43-3.75.6,2.43-.73,4.9-1.33,7.4-1.76,2.5-.44,5.03-.74,7.55-.97,2.53-.17,5.07-.32,7.61-.31,2.54,0,5.08.1,7.6.38Z"/>
          </g>
          <g>
            <path class="cls-17" d="m366.16,297.73s-8.02-15.18,13.44-39.08c0,0,1.88,29.2-13.44,39.08Z"/>
            <path class="cls-23" d="m377.32,264.56c-.99,2.34-1.95,4.67-2.87,7.02-.92,2.35-1.83,4.71-2.63,7.1-.88,2.37-1.63,4.77-2.37,7.19-.38,1.2-.73,2.42-1.05,3.64-.38,1.21-.63,2.45-.99,3.67.32-2.51.79-5.02,1.42-7.48.62-2.46,1.38-4.89,2.2-7.29.88-2.38,1.78-4.76,2.83-7.07,1.05-2.31,2.16-4.59,3.46-6.78Z"/>
          </g>
        </g>
      </g>
    </g>
    <g>
      <rect class="cls-22" x="72.72" y="143.11" width="313.98" height="197.98" rx="8" ry="8"/>
      <rect class="cls-2" x="100.84" y="155.78" width="257.73" height="172.64"/>
      <g>
        <path class="cls-6" d="m283.53,216.91h-35.44v-35.73h-72.34v124.33h107.92v-88.45l-.14-.14Zm-51.91,57.4c-1.35,1.3-2.97,1.94-4.88,1.94s-3.59-.65-4.88-1.94c-1.3-1.3-1.95-2.9-1.95-4.81s.65-3.57,1.95-4.84c1.29-1.27,2.92-1.91,4.88-1.91s3.54.65,4.88,1.94c1.34,1.3,2.02,2.9,2.02,4.81s-.67,3.51-2.02,4.81Zm13.84-31.27c-1.13,1.54-3.04,3.27-5.73,5.17-1.81,1.32-3.13,2.34-3.96,3.05-.83.71-1.46,1.5-1.87,2.39-.42.88-.62,1.96-.62,3.23v1.4h-12.92v-1.54c0-4.99,1.98-8.88,5.95-11.67l1.91-1.32c1.81-1.17,3.07-2.14,3.78-2.9.71-.76,1.07-1.7,1.07-2.83,0-2.84-2.38-4.26-7.12-4.26-2.2,0-4.48.29-6.83.88-2.35.59-4.58,1.42-6.68,2.5v-11.31c4.5-2.06,9.54-3.08,15.12-3.08,6.02,0,10.79,1.26,14.32,3.78,3.52,2.52,5.29,6.01,5.29,10.46,0,2.5-.56,4.51-1.69,6.06Z"/>
        <polygon class="cls-6" points="254.11 184.35 254.11 210.82 280.36 210.82 254.11 184.35"/>
      </g>
    </g>
    <g>
      <g>
        <g>
          <g>
            <rect class="cls-21" x="56.38" y="220.5" width="163.48" height="120.59"/>
            <rect class="cls-6" x="56.38" y="220.5" width="163.48" height="15.04"/>
          </g>
          <g>
            <path class="cls-15" d="m69.5,228.37c0,1.9-1.54,3.44-3.44,3.44s-3.44-1.54-3.44-3.44,1.54-3.44,3.44-3.44,3.44,1.54,3.44,3.44Z"/>
            <path class="cls-17" d="m81.09,228.37c0,1.9-1.54,3.44-3.44,3.44s-3.44-1.54-3.44-3.44,1.54-3.44,3.44-3.44,3.44,1.54,3.44,3.44Z"/>
            <path class="cls-22" d="m92.68,228.37c0,1.9-1.54,3.44-3.44,3.44s-3.44-1.54-3.44-3.44,1.54-3.44,3.44-3.44,3.44,1.54,3.44,3.44Z"/>
          </g>
        </g>
        <g>
          <path class="cls-6" d="m205.53,287.79c-2.78-2.71-5.63-5.1-8.44-7.06-2.96-2.16-5.9-3.92-8.42-5.37-5.56-3.1-11.2-5.6-16.75-7.43-10.71-3.59-21.62-5.33-33.37-5.33h-.08c-11.85.06-22.78,1.82-33.42,5.4-5.54,1.83-11.17,4.33-16.79,7.44-2.47,1.42-5.39,3.16-8.34,5.3-2.85,1.99-5.71,4.36-8.48,7.05l-1.91,1.85,1.91,1.85c2.77,2.69,5.62,5.06,8.44,7.02,2.99,2.17,5.91,3.91,8.42,5.35,5.58,3.1,11.21,5.59,16.74,7.42,10.65,3.58,21.58,5.35,33.44,5.4h.08c11.73,0,22.65-1.75,33.35-5.33,5.55-1.83,11.19-4.33,16.79-7.45,2.48-1.43,5.42-3.19,8.34-5.32,2.85-1.99,5.7-4.38,8.48-7.09l1.89-1.84-1.89-1.84Zm-67.04,19.94c-9.99,0-18.1-8.1-18.1-18.1s8.1-18.1,18.1-18.1c2.76,0,5.37.64,7.71,1.74-1.48,1.29-2.44,3.16-2.44,5.28,0,3.88,3.14,7.02,7.02,7.02,1.85,0,3.53-.73,4.78-1.91.65,1.87,1.03,3.87,1.03,5.97,0,9.99-8.1,18.1-18.1,18.1Z"/>
          <path class="cls-15" d="m138.12,248.08c-22.91,0-41.56,18.64-41.56,41.56s18.64,41.56,41.56,41.56,41.56-18.64,41.56-41.56-18.64-41.56-41.56-41.56Zm0,7.84c7.89,0,15.15,2.73,20.9,7.28l-47.33,47.33c-4.55-5.75-7.28-13.01-7.28-20.9,0-18.59,15.13-33.72,33.72-33.72Zm0,67.44c-7.89,0-15.15-2.73-20.9-7.28l47.33-47.33c4.55,5.75,7.28,13.01,7.28,20.9,0,18.59-15.13,33.72-33.72,33.72Z"/>
        </g>
      </g>
      <g>
        <g>
          <rect class="cls-24" x="249.59" y="84.19" width="153.44" height="113.19"/>
          <rect class="cls-3" x="249.59" y="84.19" width="153.44" height="14.12"/>
        </g>
        <g>
          <path class="cls-15" d="m261.91,91.57c0,1.78-1.45,3.23-3.23,3.23s-3.23-1.45-3.23-3.23,1.45-3.23,3.23-3.23,3.23,1.45,3.23,3.23Z"/>
          <circle class="cls-17" cx="269.56" cy="91.57" r="3.23"/>
          <circle class="cls-22" cx="280.44" cy="91.57" r="3.23"/>
        </g>
      </g>
    </g>
    <g>
      <g>
        <g>
          <g>
            <g>
              <polygon class="cls-17" points="192.18 143.11 122.33 143.11 147.49 50.76 167.02 50.76 192.18 143.11"/>
              <g class="cls-5">
                <g>
                  <rect class="cls-23" x="101.21" y="89.5" width="112.09" height="10.73"/>
                  <rect class="cls-23" x="101.21" y="116" width="112.09" height="10.73"/>
                  <rect class="cls-23" x="101.21" y="63.01" width="112.09" height="10.73"/>
                </g>
              </g>
            </g>
            <path class="cls-10" d="m192.18,143.11l-25.16-92.35h-9.26c7.53,13.06,12.03,29.63,12.03,47.66,0,16.69-3.86,32.13-10.41,44.69h32.79Z"/>
          </g>
          <rect class="cls-15" x="115.09" y="137.2" width="84.33" height="5.91"/>
        </g>
        <g class="cls-11">
          <path class="cls-1" d="m149.87,58.72c-2.18,8.01-4.36,16.02-6.55,24.03-3.48,12.76-6.95,25.51-10.43,38.27-.79,2.91-1.59,5.83-2.38,8.74-.59,2.15,2.75,3.07,3.34.92,2.18-8.01,4.36-16.02,6.55-24.03,3.48-12.76,6.95-25.51,10.43-38.27.79-2.91,1.59-5.83,2.38-8.74.59-2.15-2.75-3.07-3.34-.92h0Z"/>
        </g>
      </g>
      <g>
        <g>
          <g>
            <g>
              <polygon class="cls-17" points="403.24 341.09 283.05 341.09 326.35 182.19 359.95 182.19 403.24 341.09"/>
              <g class="cls-16">
                <g>
                  <rect class="cls-23" x="246.71" y="248.85" width="192.87" height="18.47"/>
                  <rect class="cls-23" x="246.71" y="294.43" width="192.87" height="18.47"/>
                  <rect class="cls-23" x="246.71" y="203.26" width="192.87" height="18.47"/>
                </g>
              </g>
            </g>
            <path class="cls-10" d="m403.24,341.09l-43.3-158.91h-15.93c12.96,22.47,20.71,50.98,20.71,82,0,28.72-6.65,55.29-17.91,76.9h56.43Z"/>
          </g>
          <rect class="cls-15" x="270.59" y="330.93" width="145.11" height="10.16"/>
        </g>
        <g class="cls-11">
          <path class="cls-1" d="m330.44,195.88c-3.75,13.78-7.51,27.56-11.26,41.34-5.98,21.95-11.96,43.9-17.94,65.84-1.37,5.02-2.73,10.03-4.1,15.05-1.01,3.7,4.74,5.28,5.74,1.58,3.75-13.78,7.51-27.56,11.26-41.34,5.98-21.95,11.96-43.9,17.94-65.84,1.37-5.01,2.73-10.03,4.1-15.05,1.01-3.7-4.74-5.28-5.74-1.58h0Z"/>
        </g>
      </g>
    </g>
    <g>
      <g>
        <rect class="cls-15" x="337.28" y="42.8" width="4.3" height="61.08" transform="translate(189.91 386.76) rotate(-76.69)"/>
        <rect class="cls-22" x="353.15" y="63.24" width="7.16" height="28.39" transform="translate(199.24 406.75) rotate(-76.69)"/>
      </g>
      <g>
        <circle class="cls-22" cx="299.75" cy="61.75" r="22.37" transform="translate(-1.1 5.62) rotate(-1.07)"/>
        <circle class="cls-4" cx="299.75" cy="61.75" r="17.48" transform="translate(14.49 172.61) rotate(-32.88)"/>
        <path class="cls-1" d="m310.54,55.21c-.71,2.99-3.7,4.83-6.68,4.13-2.99-.71-4.83-3.7-4.13-6.69.71-2.99,3.7-4.83,6.68-4.13,2.99.71,4.83,3.7,4.13,6.69Z"/>
      </g>
    </g>
    <g>
      <path class="cls-19" d="m208.26,60.64c1-3.34,3.12-5.55,6.33-6.63l1.54-.5c1.45-.42,2.49-.82,3.12-1.18.63-.37,1.06-.93,1.28-1.68.57-1.9-.73-3.33-3.92-4.29-1.48-.44-3.06-.7-4.75-.78-1.69-.08-3.35.03-4.98.33l2.27-7.57c3.43-.47,7.01-.15,10.75.98,4.03,1.21,6.98,3.02,8.83,5.41,1.85,2.4,2.33,5.09,1.44,8.07-.5,1.67-1.28,2.91-2.35,3.72-1.06.81-2.69,1.58-4.88,2.32-1.48.52-2.57.94-3.27,1.24-.7.31-1.28.71-1.73,1.22-.46.51-.81,1.19-1.07,2.04l-.28.94-8.66-2.6.31-1.03Zm-2.53,12.08c-.61-1.13-.72-2.33-.34-3.61.39-1.31,1.15-2.26,2.28-2.85,1.12-.59,2.34-.69,3.65-.3,1.28.38,2.24,1.15,2.88,2.29.64,1.14.77,2.35.39,3.63-.38,1.28-1.16,2.22-2.32,2.82-1.16.6-2.38.7-3.66.32-1.31-.39-2.27-1.16-2.88-2.28Z"/>
      <path class="cls-19" d="m83.11,99.66c1.87,2.95,2.16,5.99.86,9.12l-.63,1.49c-.63,1.37-1.01,2.41-1.15,3.13-.13.71,0,1.4.43,2.07,1.06,1.68,3,1.63,5.8-.15,1.3-.82,2.54-1.85,3.7-3.08,1.17-1.23,2.17-2.55,3.01-3.98l4.23,6.68c-1.89,2.9-4.49,5.4-7.78,7.48-3.56,2.25-6.85,3.3-9.87,3.13-3.03-.17-5.37-1.57-7.04-4.2-.93-1.48-1.36-2.88-1.27-4.21.09-1.33.57-3.07,1.45-5.2.57-1.46.98-2.55,1.2-3.29.23-.73.3-1.43.21-2.11-.08-.68-.36-1.39-.84-2.14l-.52-.82,7.63-4.84.58.91Zm-7.47-9.82c1.25.28,2.24.98,2.95,2.11.73,1.16.95,2.35.66,3.59-.29,1.24-1.01,2.22-2.17,2.96-1.13.71-2.33.94-3.61.68-1.28-.26-2.28-.96-2.99-2.09-.71-1.13-.92-2.33-.61-3.6.31-1.27,1.03-2.26,2.16-2.98,1.16-.73,2.36-.96,3.61-.68Z"/>
      <path class="cls-19" d="m419.75,140.61c.71-2.38,2.21-3.95,4.5-4.71l1.1-.36c1.03-.3,1.77-.58,2.21-.84.45-.26.75-.66.91-1.19.41-1.35-.52-2.37-2.78-3.04-1.05-.31-2.17-.5-3.38-.56-1.2-.06-2.38.02-3.54.23l1.62-5.38c2.44-.34,4.98-.1,7.64.69,2.87.86,4.96,2.14,6.27,3.85,1.32,1.7,1.66,3.61,1.02,5.73-.36,1.19-.91,2.07-1.67,2.64-.76.57-1.91,1.12-3.47,1.65-1.05.37-1.83.66-2.32.88-.5.22-.91.51-1.23.87-.32.36-.58.84-.76,1.45l-.2.66-6.15-1.85.22-.73Zm-1.8,8.58c-.43-.8-.51-1.66-.24-2.57.28-.93.82-1.61,1.62-2.03.8-.42,1.66-.49,2.6-.21.91.27,1.59.81,2.05,1.62.45.81.55,1.67.27,2.58-.27.91-.82,1.58-1.65,2-.83.42-1.69.5-2.6.23-.93-.28-1.61-.82-2.05-1.62Z"/>
    </g>
    <path class="cls-3" d="m23.71,150.48c0,1.06-.86,1.93-1.92,1.93s-1.93-.86-1.93-1.93.86-1.93,1.93-1.93,1.92.86,1.92,1.93Z"/>
  </g>
  <g id="TEXTS">
    <text class="cls-14" transform="translate(279.15 163.65)"><tspan x="0" y="0">404</tspan></text>
  </g>
</svg>