<?xml version="1.0" encoding="UTF-8"?>
<svg xmlns="http://www.w3.org/2000/svg" viewBox="0 0 674.66 401.23">
  <defs>
    <style>
      .cls-1 {
        fill: #fff;
      }

      .cls-2 {
        fill: #fafafa;
      }

      .cls-3 {
        fill: #f5f5f5;
      }

      .cls-4 {
        fill: #455a64;
      }

      .cls-5 {
        opacity: .2;
      }

      .cls-6 {
        fill: #e0e0e0;
      }

      .cls-7 {
        fill: #e8505b;
      }

      .cls-8 {
        fill: #eb996e;
      }

      .cls-9 {
        fill: #ffbe9d;
      }

      .cls-10 {
        fill: #ebebeb;
      }

      .cls-11 {
        fill: none;
      }

      .cls-12 {
        fill: #263238;
      }
    </style>
  </defs>
  <g id="Background_Complete" data-name="Background Complete">
    <rect class="cls-3" x="130.67" y=".02" width="60.41" height="82.67"/>
    <rect class="cls-6" x="115.36" y="10.43" width="60.41" height="82.67"/>
    <path class="cls-10" d="m460.51,123.48s-.13.01-.39.02c-.28,0-.66,0-1.17.02-1.05,0-2.58.02-4.55.03-4,.01-9.79.03-17.07.06-14.61.02-35.15.05-58.91.09h-.16s-.04-.15-.04-.15c-1.22-4.16-.47-9.04,2.25-12.77,2.72-3.72,7.38-6.09,12.19-5.97l-.22.28c-.35-1.22-.52-2.59-.46-3.95.18-4.55,2.77-8.95,6.75-10.99,3.92-2.07,8.77-1.99,12.48.07l-.3.11c2.12-5.17,6.59-8.91,11.43-10.65,4.86-1.77,10.25-1.53,14.49.68,4.26,2.18,7.29,5.9,8.97,9.8,1.72,3.92,1.96,8.13,1.1,11.75l-.16-.19c2.44-.27,4.79.15,6.82.98,2.03.83,3.75,2.05,5.06,3.47.65.7,1.21,1.47,1.59,2.28.38.81.66,1.63.85,2.43.39,1.6.53,3.09.58,4.43.09,2.69-.24,4.76-.53,6.13-.16.68-.3,1.2-.42,1.54-.12.34-.18.51-.18.51"/>
    <path class="cls-10" d="m617.59,84.19c-8.2,1.36-13.75,9.12-12.38,17.32,1.36,8.2,9.12,13.75,17.32,12.38,7.02-1.17,12.08-7.01,12.55-13.81h0s4.13-.69,4.13-.69l2.2-4.64,3.22,3.74,5.17-.86,2.2-4.64,3.22,3.74,4.44-.74,1.34-2.83,1.96,2.28,2.59-.43,2.84-3.76-4.87-5.36-30.74,5.11c-3.14-4.97-9.04-7.84-15.2-6.82Zm-8.38,16.65c-.39-2.35,1.2-4.58,3.55-4.97,2.35-.39,4.58,1.2,4.97,3.55.39,2.35-1.2,4.58-3.55,4.97-2.35.39-4.58-1.2-4.97-3.55Z"/>
    <g>
      <path class="cls-10" d="m602.32,199.23l1.85,34.09c.07,1.21,1.07,2.17,2.28,2.18l61.35.45c1.27,0,2.31-1.01,2.32-2.29l.19-26.54c0-1.28-1.02-2.32-2.3-2.32l-37.73-.03c-.61,0-1.19-.24-1.63-.67l-6.51-6.51c-.43-.43-1.01-.67-1.61-.67l-15.91-.12c-1.33,0-2.39,1.1-2.32,2.43Z"/>
      <rect class="cls-3" x="603.18" y="200.55" width="67.04" height="40.06" transform="translate(1.63 -4.66) rotate(.42)"/>
      <path class="cls-10" d="m597.97,203.86l4.81,41.81c.09.74.71,1.31,1.46,1.31l65.33.48c.77,0,1.42-.58,1.49-1.35l3.6-41.75c.07-.86-.6-1.6-1.46-1.61l-73.74-.54c-.89,0-1.58.77-1.48,1.65Z"/>
    </g>
    <g>
      <path class="cls-10" d="m594.58,387.49c-15.55-10.87-19.08-31.03-18.46-49.16.1-3.03-.23-6.22,1.21-8.87,1.44-2.65,4.8-4.47,7.51-3.19,2.25,1.06,3.23,3.67,4.48,5.83,1.67,2.88,4.16,5.26,7.1,6.78,1.93,1,4.31,1.61,6.21.56,2.61-1.44,2.92-5.05,2.9-8.06-.04-5.61-.07-11.22-.11-16.83-.02-3.01-.03-6.08.91-8.94.94-2.86,3-5.51,5.87-6.31,2.86-.8,6.4.85,7.01,3.79.25,1.23,0,2.5.09,3.75.08,1.25.67,2.63,1.85,2.98,1.2.35,2.41-.5,3.31-1.38,3.11-3.04,5.21-6.95,7.18-10.85,1.97-3.89,3.88-7.88,6.7-11.19,2.82-3.31,6.72-5.94,11.03-6.19,4.31-.24,8.9,2.42,9.99,6.65,1.09,4.24-1.38,8.55-4.08,11.98-4,5.1-8.72,9.6-13.99,13.33-.95.67-1.98,1.4-2.34,2.52-.65,2.01,1.25,4,3.23,4.66,2.24.75,4.68.51,7.02.79,2.35.28,4.89,1.31,5.78,3.53,1.23,3.08-1.34,6.3-3.87,8.41-5.07,4.23-10.86,7.57-17.03,9.83-2.21.81-4.54,1.52-6.33,3.08-1.79,1.56-2.86,4.26-1.78,6.38,1.08,2.12,3.85,2.8,6.17,2.37,2.32-.43,4.39-1.69,6.6-2.52,4.14-1.56,9.48-1.28,12.13,2.3,1.74,2.35,1.89,5.62,1.01,8.42-.88,2.8-2.67,5.21-4.56,7.44-6.63,7.78-15.12,14.04-24.71,17.37-9.59,3.33-18.48,4.23-28.02.74"/>
      <path class="cls-6" d="m594.34,400.93c.66-7.18,2.23-15.66,4.92-24.81,2.67-9.15,6.42-18.94,10.71-29.04,1.08-2.52,2.15-5.01,3.2-7.47,1.05-2.45,2.1-4.88,3.27-7.19,2.32-4.63,4.9-8.91,7.48-12.9,2.58-3.99,5.17-7.68,7.62-11.11,2.46-3.43,4.81-6.58,7.07-9.36,4.51-5.58,8.68-9.65,11.65-12.32,1.48-1.34,2.67-2.34,3.48-3.01.39-.32.7-.57.93-.76.21-.17.32-.25.33-.24,0,0-.09.1-.29.29-.22.2-.52.46-.89.8-.79.7-1.95,1.72-3.41,3.09-2.92,2.72-7.03,6.81-11.5,12.41-2.24,2.79-4.57,5.95-7,9.38-2.43,3.44-5.01,7.14-7.57,11.12-2.56,3.98-5.12,8.25-7.43,12.86-1.16,2.3-2.19,4.71-3.25,7.16-1.05,2.45-2.11,4.94-3.19,7.46-4.28,10.09-8.04,19.85-10.73,28.96-2.7,9.11-4.31,17.54-5.02,24.7"/>
      <path class="cls-6" d="m616.59,332.41s-.14-.45-.29-1.28c-.16-.83-.35-2.04-.56-3.54-.43-3-.87-7.16-1.35-11.74-.47-4.59-.98-8.73-1.45-11.71-.23-1.49-.43-2.7-.58-3.53-.14-.83-.21-1.3-.17-1.31.04,0,.17.44.38,1.26.21.82.47,2.02.75,3.51.57,2.98,1.14,7.13,1.61,11.72.46,4.53.87,8.62,1.19,11.75.15,1.41.28,2.6.38,3.56.09.84.12,1.31.08,1.32Z"/>
      <path class="cls-6" d="m655.28,325.18s-.55.1-1.54.18c-.99.09-2.43.21-4.2.41-3.54.38-8.42,1.08-13.77,2.09-5.35,1.02-10.15,2.14-13.59,3.06-1.73.45-3.12.84-4.08,1.11-.96.27-1.5.41-1.51.37-.01-.04.5-.24,1.45-.58.94-.33,2.32-.79,4.04-1.29,3.43-1.02,8.23-2.21,13.6-3.23,5.36-1.01,10.27-1.65,13.83-1.93,1.78-.16,3.23-.22,4.23-.24,1-.02,1.55,0,1.55.03Z"/>
      <path class="cls-6" d="m599.73,375.41s-.11-.15-.27-.47c-.18-.38-.4-.84-.66-1.4-.57-1.22-1.35-3-2.28-5.22-1.87-4.43-4.25-10.64-6.79-17.52-2.54-6.88-4.87-13.1-6.64-17.57-.87-2.17-1.58-3.96-2.11-5.28-.23-.58-.41-1.05-.57-1.44-.12-.33-.18-.51-.16-.52.02,0,.11.16.27.47.18.38.4.84.66,1.4.57,1.22,1.35,3,2.28,5.22,1.87,4.43,4.25,10.64,6.79,17.52,2.54,6.88,4.87,13.1,6.64,17.57.87,2.17,1.58,3.96,2.11,5.28.23.58.41,1.05.57,1.44.12.33.18.51.16.52Z"/>
      <path class="cls-6" d="m651.15,358.84s-.17.09-.51.21c-.4.13-.9.3-1.49.5-1.38.45-3.24,1.05-5.51,1.78-4.65,1.51-11.05,3.66-18.11,6.06-7.07,2.39-13.49,4.49-18.17,5.9-2.34.71-4.24,1.26-5.56,1.61-.61.16-1.11.29-1.52.4-.35.09-.54.12-.54.1,0-.02.17-.09.51-.21.4-.13.89-.3,1.49-.5,1.38-.45,3.24-1.05,5.51-1.78,4.65-1.51,11.05-3.66,18.12-6.06,7.07-2.39,13.49-4.49,18.17-5.9,2.34-.71,4.24-1.26,5.56-1.61.61-.16,1.11-.29,1.52-.4.35-.09.54-.12.54-.1Z"/>
    </g>
  </g>
  <g id="Floor">
    <path class="cls-12" d="m657.84,400.97c0,.14-143.77.26-321.08.26s-321.11-.12-321.11-.26,143.74-.26,321.11-.26,321.08.12,321.08.26Z"/>
  </g>
  <g id="Plant">
    <g>
      <path class="cls-7" d="m583.77,366.06c1.75,2.25,4.88,1.31,6.27-.18,1.4-1.5,1.91-3.59,2.38-5.58,1.06-4.55,2.13-9.32.94-13.85-.36-1.35-.94-2.69-1.95-3.65-1.01-.96-2.52-1.49-3.85-1.07-1.58.5-2.49,2.12-3.13,3.64-1.89,4.48-2.76,9.39-2.53,14.24.11,2.27.49,4.63,1.87,6.44"/>
      <g class="cls-5">
        <path d="m583.77,366.06c1.75,2.25,4.88,1.31,6.27-.18,1.4-1.5,1.91-3.59,2.38-5.58,1.06-4.55,2.13-9.32.94-13.85-.36-1.35-.94-2.69-1.95-3.65-1.01-.96-2.52-1.49-3.85-1.07-1.58.5-2.49,2.12-3.13,3.64-1.89,4.48-2.76,9.39-2.53,14.24.11,2.27.49,4.63,1.87,6.44"/>
      </g>
      <path class="cls-7" d="m590.47,377.54c2.6-1.51,5.73-1.85,8.71-1.51,1.6.18,3.28.57,4.43,1.71,1.14,1.14,1.45,3.23.26,4.32-.71.65-1.73.79-2.69.83-2.32.09-4.91-.19-6.69,1.3-1.02.85-1.65,2.21-2.89,2.66-1.22.44-2.65-.21-3.36-1.3-.71-1.08-.8-2.47-.56-3.75,0,0,.18-2.75,2.8-4.28Z"/>
      <path class="cls-7" d="m579.46,369.63c1.66-2.19,1.84-5.27.92-7.86-.92-2.59-2.81-4.74-4.95-6.46-2.51-2.02-5.42-3.55-8.51-4.46-1.22-.36-2.49-.63-3.75-.44-1.26.18-2.49.89-3.02,2.05-.79,1.7.15,3.67,1.13,5.27,1.74,2.81,3.69,5.49,5.85,7.99,1.73,2.02,3.7,3.99,6.23,4.81,2.53.82,5.1.58,6.33-1.21"/>
      <path class="cls-12" d="m585.44,401.18s.06-.38.09-1.07c.04-.77.08-1.75.13-2.9.07-1.22.18-2.68.44-4.27.26-1.59.7-3.32,1.29-5.08.61-1.75,1.39-3.35,2.32-4.65.93-1.3,2.03-2.27,3.09-2.85,1.05-.59,2.01-.85,2.67-.98.67-.1,1.05-.18,1.05-.21,0-.03-.38-.02-1.07.04-.68.08-1.68.31-2.8.88-1.12.56-2.29,1.55-3.27,2.88-.98,1.33-1.79,2.96-2.41,4.75-.6,1.79-1.03,3.54-1.27,5.16-.24,1.62-.31,3.09-.35,4.32-.03,1.23-.01,2.22,0,2.91.02.69.05,1.07.08,1.07Z"/>
      <path class="cls-12" d="m585.52,398.95s.02-.17,0-.49c-.02-.37-.04-.83-.07-1.4-.06-1.22-.15-2.98-.2-5.16-.11-4.36-.04-10.39.35-17.03.4-6.64,1.06-12.64,1.73-16.94.15-1.08.32-2.05.47-2.9.15-.85.27-1.59.39-2.19.11-.56.19-1.02.26-1.38.05-.32.08-.49.06-.49-.01,0-.06.16-.15.47-.09.36-.2.81-.34,1.37-.15.59-.3,1.32-.47,2.18-.18.85-.36,1.82-.54,2.9-.75,4.31-1.46,10.31-1.86,16.97-.39,6.66-.41,12.7-.22,17.06.08,2.18.22,3.95.34,5.16.06.57.12,1.03.16,1.4.04.32.07.49.08.48Z"/>
      <path class="cls-12" d="m584.96,387.32s0-.52-.08-1.47c-.1-.94-.3-2.29-.65-3.95-.37-1.65-.86-3.61-1.58-5.72-.7-2.13-1.62-4.41-2.77-6.73-2.25-4.66-5.17-8.42-7.67-10.71-.59-.61-1.23-1.04-1.75-1.47-.27-.2-.51-.41-.74-.57-.24-.15-.46-.29-.67-.41-.81-.49-1.26-.75-1.27-.73-.07.1,1.81,1.08,4.23,3.4,2.41,2.32,5.26,6.06,7.49,10.68,1.14,2.29,2.06,4.56,2.78,6.66.74,2.09,1.26,4.03,1.66,5.66.39,1.64.63,2.98.78,3.9.13.93.22,1.45.25,1.44Z"/>
    </g>
  </g>
  <g id="User">
    <g>
      <rect class="cls-2" x=".26" y="176.49" width="113.06" height="75.72"/>
      <g>
        <path class="cls-12" d="m82.61,222.42h-3.01v-18.12c0-4.35-3.54-7.89-7.89-7.89s-7.89,3.54-7.89,7.89v18.12h-3.01v-18.12c0-6.01,4.89-10.91,10.91-10.91s10.91,4.89,10.91,10.91v18.12Z"/>
        <rect class="cls-12" x="56.79" y="214.35" width="29.83" height="19.14" rx="3.39" ry="3.39"/>
        <g>
          <path class="cls-4" d="m71.7,223.92c-1.38,0-2.49-1.12-2.49-2.49s1.12-2.49,2.49-2.49,2.49,1.12,2.49,2.49-1.12,2.49-2.49,2.49"/>
          <rect class="cls-4" x="71.02" y="222.42" width="1.36" height="5.13"/>
        </g>
      </g>
      <path class="cls-7" d="m56.05,222.2c4.19-1.76,7.17-6.08,7.19-11.17.03-6.67-5.02-12.1-11.27-12.12-6.25-.03-11.34,5.35-11.37,12.02-.02,5.14,2.98,9.51,7.21,11.27-17.42,2.62-16.63,21.56-16.63,21.56l41.19.19s.94-19.14-16.33-21.75Z"/>
      <path class="cls-12" d="m113.32,252.21s-.01-.48-.02-1.38c0-.92-.01-2.25-.02-4-.01-3.51-.03-8.65-.05-15.23-.03-13.16-.06-32.06-.11-55.11l.21.21c-31.16.01-70.46.03-113.05.05h0l.26-.26c0,26.98-.02,52.63-.02,75.72l-.24-.24c33.27.05,61.5.09,81.43.12,9.97.03,17.86.05,23.28.06,2.7.01,4.78.02,6.19.03.7,0,1.23.01,1.6.01.36,0,.55.01.55.01,0,0-.17,0-.52.01-.37,0-.89,0-1.57.01-1.41,0-3.47.02-6.15.03-5.4.01-13.27.04-23.22.06-19.97.03-48.25.07-81.59.12H.02s0-.24,0-.24C.02,229.12,0,203.47,0,176.49v-.26s.26,0,.26,0h0c42.59.02,81.89.04,113.05.05h.21s0,.21,0,.21c-.05,23.1-.08,42.05-.11,55.24-.02,6.56-.04,11.69-.05,15.19-.01,1.73-.02,3.05-.02,3.96,0,.89-.02,1.34-.02,1.34Z"/>
      <path class="cls-12" d="m113.29,185.59c0,.14-25.29.26-56.49.26s-56.49-.12-56.49-.26,25.29-.26,56.49-.26,56.49.12,56.49.26Z"/>
      <g>
        <path class="cls-12" d="m7.71,181.05c0,.65-.52,1.17-1.17,1.17s-1.17-.52-1.17-1.17.52-1.17,1.17-1.17,1.17.52,1.17,1.17Z"/>
        <path class="cls-12" d="m11.53,181.05c0,.65-.52,1.17-1.17,1.17s-1.17-.52-1.17-1.17.52-1.17,1.17-1.17,1.17.52,1.17,1.17Z"/>
        <path class="cls-12" d="m15.65,181.05c0,.65-.52,1.17-1.17,1.17s-1.17-.52-1.17-1.17.52-1.17,1.17-1.17,1.17.52,1.17,1.17Z"/>
      </g>
      <path class="cls-12" d="m113.32,252.21s-.01-.48-.02-1.38c0-.92-.01-2.25-.02-4-.01-3.51-.03-8.65-.05-15.23-.03-13.16-.06-32.06-.11-55.11l.21.21c-31.16.01-70.46.03-113.05.05h0l.26-.26c0,26.98-.02,52.63-.02,75.72l-.24-.24c33.27.05,61.5.09,81.43.12,9.97.03,17.86.05,23.28.06,2.7.01,4.78.02,6.19.03.7,0,1.23.01,1.6.01.36,0,.55.01.55.01,0,0-.17,0-.52.01-.37,0-.89,0-1.57.01-1.41,0-3.47.02-6.15.03-5.4.01-13.27.04-23.22.06-19.97.03-48.25.07-81.59.12H.02s0-.24,0-.24C.02,229.12,0,203.47,0,176.49v-.26s.26,0,.26,0h0c42.59.02,81.89.04,113.05.05h.21s0,.21,0,.21c-.05,23.1-.08,42.05-.11,55.24-.02,6.56-.04,11.69-.05,15.19-.01,1.73-.02,3.05-.02,3.96,0,.89-.02,1.34-.02,1.34Z"/>
    </g>
    <g>
      <path class="cls-12" d="m56.06,254.71c-.14,0-.26-.56-.26-1.25s.12-1.25.26-1.25.26.56.26,1.25-.12,1.25-.26,1.25Z"/>
      <path class="cls-12" d="m56.06,265.66c-.14,0-.26-1.22-.26-2.74s.12-2.74.26-2.74.26,1.22.26,2.74-.12,2.74-.26,2.74Z"/>
      <path class="cls-12" d="m56.06,276.6c-.14,0-.26-1.22-.26-2.74s.12-2.74.26-2.74.26,1.22.26,2.74-.12,2.74-.26,2.74Z"/>
      <path class="cls-12" d="m56.06,287.54c-.14,0-.26-1.22-.26-2.73s.12-2.74.26-2.74.26,1.22.26,2.74-.12,2.73-.26,2.73Z"/>
      <path class="cls-12" d="m56.06,298.48c-.14,0-.26-1.22-.26-2.74s.12-2.74.26-2.74.26,1.22.26,2.74-.12,2.74-.26,2.74Z"/>
      <path class="cls-12" d="m58.56,306.45c0,.14-1.12.26-2.5.26-.52-.52-.14-.14-.26-.26h0v-.03s0-.03,0-.03v-.06s0-.13,0-.13v-.25c0-.15.01-.3.02-.47.01-.3.03-.57.06-.79.05-.45.11-.73.18-.73s.14.28.18.73c.02.23.04.5.06.79,0,.17.01.32.02.47v.25s0,.13,0,.13v.06s0,.03,0,.03v.02h0v.02c-.12-.12.26.26-.26-.26,1.38,0,2.5.12,2.5.26Z"/>
      <path class="cls-12" d="m68.39,306.45c0,.14-1.1.26-2.46.26s-2.46-.12-2.46-.26,1.1-.26,2.46-.26,2.46.12,2.46.26Z"/>
      <path class="cls-12" d="m78.21,306.45c0,.14-1.1.26-2.46.26s-2.46-.12-2.46-.26,1.1-.26,2.46-.26,2.46.12,2.46.26Z"/>
      <path class="cls-12" d="m88.04,306.45c0,.14-1.1.26-2.46.26s-2.46-.12-2.46-.26,1.1-.26,2.46-.26,2.46.12,2.46.26Z"/>
      <path class="cls-12" d="m97.87,306.45c0,.14-1.1.26-2.46.26s-2.46-.12-2.46-.26,1.1-.26,2.46-.26,2.46.12,2.46.26Z"/>
      <path class="cls-12" d="m107.69,306.45c0,.14-1.1.26-2.46.26s-2.46-.12-2.46-.26,1.1-.26,2.46-.26,2.46.12,2.46.26Z"/>
      <path class="cls-12" d="m117.52,306.45c0,.14-1.1.26-2.46.26s-2.46-.12-2.46-.26,1.1-.26,2.46-.26,2.46.12,2.46.26Z"/>
      <path class="cls-12" d="m127.35,306.45c0,.14-1.1.26-2.46.26s-2.46-.12-2.46-.26,1.1-.26,2.46-.26,2.46.12,2.46.26Z"/>
      <path class="cls-12" d="m137.17,306.45c0,.14-1.1.26-2.46.26s-2.46-.12-2.46-.26,1.1-.26,2.46-.26,2.46.12,2.46.26Z"/>
      <path class="cls-12" d="m147,306.45c0,.14-1.1.26-2.46.26s-2.46-.12-2.46-.26,1.1-.26,2.46-.26,2.46.12,2.46.26Z"/>
      <path class="cls-12" d="m156.83,306.45c0,.14-1.1.26-2.46.26s-2.46-.12-2.46-.26,1.1-.26,2.46-.26,2.46.12,2.46.26Z"/>
      <path class="cls-12" d="m164.24,306.45c0,.14-.56.26-1.25.26s-1.25-.12-1.25-.26.56-.26,1.25-.26,1.25.12,1.25.26Z"/>
    </g>
  </g>
  <g id="Document">
    <g>
      <g>
        <g>
          <rect class="cls-1" x="105" y="23.13" width="60.41" height="82.67"/>
          <path class="cls-12" d="m165.45,105.78s-.01-.14-.02-.41c0-.28,0-.67-.02-1.17,0-1.05-.02-2.56-.04-4.52-.02-3.96-.05-9.71-.09-16.98-.04-14.55-.11-35.18-.18-59.6l.27.27c-18.19.02-38.74.05-60.41.07h0l.3-.3c0,30.88,0,59.47,0,82.67l-.25-.25c18.27.04,33.34.07,43.87.1,5.26.02,9.38.04,12.21.05,1.4.01,2.47.02,3.22.03.73,0,1.12.03,1.12.03,0,0-.35.02-1.07.03-.74,0-1.8.02-3.17.03-2.82.02-6.92.04-12.15.07-10.56.04-25.69.09-44.02.16h-.25s0-.25,0-.25c-.03-23.2-.07-51.79-.11-82.67v-.3s.3,0,.3,0h0c21.67,0,42.21-.01,60.41-.02h.27s0,.27,0,.27c-.04,24.49-.07,45.18-.09,59.77-.03,7.25-.05,12.98-.06,16.92-.01,1.94-.02,3.43-.03,4.46,0,.49-.01.86-.02,1.14,0,.25-.01.38-.02.38Z"/>
        </g>
        <path class="cls-12" d="m141.93,39.74c0,.17-6.57.31-14.68.31-8.11,0-14.68-.12-14.68-.29,0-.17,6.57-.31,14.68-.31,8.11,0,14.68.12,14.68.29Z"/>
        <path class="cls-12" d="m157.82,46.91c0,.17-10.13.31-22.62.32-12.49,0-22.62-.12-22.62-.29,0-.17,10.13-.31,22.62-.32,12.49,0,22.62.12,22.62.29Z"/>
        <path class="cls-12" d="m157.82,54.4c0,.17-10.13.31-22.62.32-12.49,0-22.62-.12-22.62-.29,0-.17,10.13-.31,22.62-.32,12.49,0,22.62.12,22.62.29Z"/>
        <path class="cls-12" d="m157.83,61.9c0,.17-10.13.31-22.62.32-12.49,0-22.62-.12-22.62-.29,0-.17,10.13-.31,22.62-.32,12.49,0,22.62.12,22.62.29Z"/>
        <path class="cls-12" d="m157.83,69.39c0,.17-10.13.31-22.62.32-12.49,0-22.62-.12-22.62-.29,0-.17,10.13-.31,22.62-.32,12.49,0,22.62.12,22.62.29Z"/>
        <path class="cls-12" d="m157.84,76.89c0,.17-10.13.31-22.62.32-12.49,0-22.62-.12-22.62-.29,0-.17,10.13-.31,22.62-.32,12.49,0,22.62.12,22.62.29Z"/>
        <path class="cls-12" d="m157.84,84.38c0,.17-10.13.31-22.62.32-12.49,0-22.62-.12-22.62-.29,0-.17,10.13-.31,22.62-.32,12.49,0,22.62.12,22.62.29Z"/>
        <path class="cls-12" d="m136.93,91.89c0,.17-5.44.31-12.16.31-6.72,0-12.16-.13-12.16-.29,0-.17,5.44-.31,12.16-.31,6.71,0,12.16.13,12.16.29Z"/>
      </g>
      <g>
        <circle class="cls-7" cx="160.16" cy="99.52" r="12.27"/>
        <path class="cls-6" d="m167.2,94.78c.53.49-1.88,3.93-5.38,7.67-.56.6-1.12,1.18-1.65,1.7l-.85.84-.84-.71c-3.05-2.56-5.05-4.76-4.68-5.24.37-.48,2.99.92,6.23,3.25l-1.69.13c.49-.56,1.02-1.16,1.59-1.76,3.5-3.74,6.76-6.38,7.29-5.89Z"/>
      </g>
    </g>
    <g>
      <path class="cls-12" d="m130.64,110.3c-.14,0-.26-1.12-.26-2.5s.12-2.5.26-2.5.26,1.12.26,2.5-.12,2.5-.26,2.5Z"/>
      <path class="cls-12" d="m130.64,120.3c-.14,0-.26-1.12-.26-2.5s.12-2.5.26-2.5.26,1.12.26,2.5-.12,2.5-.26,2.5Z"/>
      <path class="cls-12" d="m130.64,130.3c-.14,0-.26-1.12-.26-2.5s.12-2.5.26-2.5.26,1.12.26,2.5-.12,2.5-.26,2.5Z"/>
      <path class="cls-12" d="m130.64,140.3c-.14,0-.26-1.12-.26-2.5s.12-2.5.26-2.5.26,1.12.26,2.5-.12,2.5-.26,2.5Z"/>
      <path class="cls-12" d="m130.64,150.3c-.14,0-.26-1.12-.26-2.5s.12-2.5.26-2.5.26,1.12.26,2.5-.12,2.5-.26,2.5Z"/>
      <path class="cls-12" d="m130.64,160.3c-.14,0-.26-1.12-.26-2.5s.12-2.5.26-2.5.26,1.12.26,2.5-.12,2.5-.26,2.5Z"/>
      <path class="cls-12" d="m130.64,170.3c-.14,0-.26-1.12-.26-2.5s.12-2.5.26-2.5.26,1.12.26,2.5-.12,2.5-.26,2.5Z"/>
      <path class="cls-12" d="m130.64,180.3c-.14,0-.26-1.12-.26-2.5s.12-2.5.26-2.5.26,1.12.26,2.5-.12,2.5-.26,2.5Z"/>
      <path class="cls-12" d="m135.46,185.48c0,.14-1.12.26-2.5.26-1.06,0-1.97-.07-2.33-.17l-.11-.03.02-.06c.03-.11.06-.17.09-.17s.07.06.09.17l-.09-.09c.36-.1,1.26-.17,2.33-.17,1.38,0,2.5.12,2.5.26Z"/>
      <path class="cls-12" d="m145.46,185.48c0,.14-1.12.26-2.5.26s-2.5-.12-2.5-.26,1.12-.26,2.5-.26,2.5.12,2.5.26Z"/>
      <path class="cls-12" d="m155.46,185.48c0,.14-1.12.26-2.5.26s-2.5-.12-2.5-.26,1.12-.26,2.5-.26,2.5.12,2.5.26Z"/>
      <path class="cls-12" d="m165.46,185.48c0,.14-1.12.26-2.5.26s-2.5-.12-2.5-.26,1.12-.26,2.5-.26,2.5.12,2.5.26Z"/>
      <path class="cls-12" d="m175.46,185.48c0,.14-1.12.26-2.5.26s-2.5-.12-2.5-.26,1.12-.26,2.5-.26,2.5.12,2.5.26Z"/>
    </g>
  </g>
  <g id="Cloud">
    <g>
      <path class="cls-12" d="m342.02,95.02c-.14,0-.26-1.12-.26-2.5s.12-2.5.26-2.5.26,1.12.26,2.5-.12,2.5-.26,2.5Z"/>
      <path class="cls-12" d="m342.02,105.02c-.14,0-.26-1.12-.26-2.5s.12-2.5.26-2.5.26,1.12.26,2.5-.12,2.5-.26,2.5Z"/>
      <path class="cls-12" d="m342.02,115.02c-.14,0-.26-1.12-.26-2.5s.12-2.5.26-2.5.26,1.12.26,2.5-.12,2.5-.26,2.5Z"/>
      <path class="cls-12" d="m342.02,125.01c-.14,0-.26-1.12-.26-2.5s.12-2.5.26-2.5.26,1.12.26,2.5-.12,2.5-.26,2.5Z"/>
      <path class="cls-12" d="m342.02,135.01c-.14,0-.26-1.12-.26-2.5s.12-2.5.26-2.5.26,1.12.26,2.5-.12,2.5-.26,2.5Z"/>
      <path class="cls-12" d="m342.02,145.02c-.14,0-.26-1.12-.26-2.5s.12-2.5.26-2.5.26,1.12.26,2.5-.12,2.5-.26,2.5Z"/>
      <path class="cls-12" d="m342.02,155.02c-.14,0-.26-1.12-.26-2.5s.12-2.5.26-2.5.26,1.12.26,2.5-.12,2.5-.26,2.5Z"/>
      <path class="cls-12" d="m342.02,165.02c-.14,0-.26-1.12-.26-2.5s.12-2.5.26-2.5.26,1.12.26,2.5-.12,2.5-.26,2.5Z"/>
    </g>
    <g>
      <path class="cls-7" d="m409.93,101.44s-.19.02-.59.02c-.42,0-1.01.01-1.77.02-1.59.01-3.9.03-6.89.05-6.05.02-14.83.05-25.84.09-22.12.03-53.22.08-89.19.14h-.24s-.07-.23-.07-.23c-1.85-6.3-.72-13.69,3.41-19.34,4.11-5.63,11.18-9.22,18.46-9.03l-.33.43c-.53-1.84-.78-3.92-.69-5.99.28-6.89,4.19-13.55,10.21-16.64,5.94-3.14,13.27-3.02,18.9.1l-.46.16c3.21-7.82,9.97-13.49,17.31-16.12,7.36-2.67,15.52-2.32,21.94,1.03,6.45,3.3,11.04,8.93,13.58,14.84,2.61,5.94,2.97,12.32,1.67,17.79l-.25-.28c3.69-.41,7.26.23,10.32,1.48,3.07,1.26,5.68,3.11,7.66,5.25.99,1.07,1.84,2.22,2.41,3.46.57,1.23,1,2.47,1.28,3.67.59,2.42.81,4.68.88,6.71.13,4.07-.36,7.2-.8,9.28-.24,1.04-.45,1.82-.64,2.34-.18.52-.28.76-.28.76"/>
      <g>
        <path class="cls-6" d="m398.61,67.19h-3.85v-23.16c0-5.56-4.53-10.09-10.09-10.09s-10.09,4.53-10.09,10.09v23.16h-3.85v-23.16c0-7.69,6.25-13.94,13.94-13.94s13.94,6.25,13.94,13.94v23.16Z"/>
        <rect class="cls-6" x="365.61" y="56.88" width="38.12" height="24.46" rx="3.39" ry="3.39"/>
        <g>
          <path class="cls-4" d="m384.67,69.11c-1.76,0-3.19-1.43-3.19-3.19s1.43-3.19,3.19-3.19,3.19,1.43,3.19,3.19-1.43,3.19-3.19,3.19"/>
          <rect class="cls-4" x="383.8" y="67.19" width="1.74" height="6.55"/>
        </g>
      </g>
    </g>
  </g>
  <g id="Key">
    <g>
      <g>
        <path class="cls-12" d="m619.06,59.5c8.42-7.86,8.88-21.05,1.02-29.47-7.86-8.42-21.05-8.88-29.47-1.02-7.2,6.72-8.57,17.34-3.91,25.55l-4.24,3.96,1.01,7.04-6.58-1.85-5.31,4.95,1.01,7.04-6.58-1.85-4.56,4.26.62,4.29-4.01-1.12-2.66,2.48-.4,6.52,9.73,2.45,31.57-29.45c7.43,3.33,16.44,2.12,22.77-3.78Zm-3.08-25.64c2.25,2.42,2.12,6.2-.29,8.45-2.42,2.25-6.2,2.12-8.46-.29-2.25-2.42-2.12-6.2.29-8.45,2.42-2.25,6.2-2.12,8.45.29Z"/>
        <g>
          <path class="cls-11" d="m619.06,59.5c8.42-7.86,8.88-21.05,1.02-29.47-7.86-8.42-21.05-8.88-29.47-1.02-7.2,6.72-8.57,17.34-3.91,25.55l-4.24,3.96,1.01,7.04-6.58-1.85-5.31,4.95,1.01,7.04-6.58-1.85-4.56,4.26.62,4.29-4.01-1.12-2.66,2.48-.4,6.52,9.73,2.45,31.57-29.45c7.43,3.33,16.44,2.12,22.77-3.78Zm-3.08-25.64c2.25,2.42,2.12,6.2-.29,8.45-2.42,2.25-6.2,2.12-8.46-.29-2.25-2.42-2.12-6.2.29-8.45,2.42-2.25,6.2-2.12,8.45.29Z"/>
          <path class="cls-12" d="m615.97,33.86s-.39-.36-1.19-.86c-.78-.48-2.11-1.01-3.76-.83-1.62.15-3.55,1.19-4.53,3.15-1.01,1.9-.81,4.68.92,6.51,1.71,1.86,4.47,2.25,6.43,1.38,2.02-.84,3.2-2.69,3.46-4.3.3-1.64-.14-3-.56-3.81-.43-.83-.81-1.21-.77-1.24.01-.01.11.08.29.26.18.18.41.47.66.89.49.81,1.02,2.22.75,3.97-.23,1.72-1.45,3.74-3.64,4.68-1.07.47-2.34.65-3.59.4-1.26-.22-2.48-.88-3.41-1.86-.91-1-1.49-2.26-1.62-3.53-.15-1.27.11-2.53.65-3.56,1.08-2.11,3.19-3.19,4.92-3.3,1.76-.15,3.14.47,3.91,1.02.4.27.67.53.84.72.17.19.25.29.24.3Z"/>
          <path class="cls-12" d="m619.06,59.5s-.1.1-.3.29c-.22.2-.52.47-.92.82-.86.66-2.14,1.65-4.04,2.57-1.89.9-4.38,1.74-7.41,1.99-3.02.23-6.59-.16-10.17-1.74l.17-.03c-8.14,7.62-18.96,17.75-31.51,29.51l-.09.09-.12-.03c-3.05-.77-6.35-1.59-9.73-2.44l-.2-.05v-.2c.13-2.03.27-4.26.4-6.52v-.1s.08-.07.08-.07c.82-.77,1.74-1.62,2.65-2.48l.1-.1.14.04c1.25.35,2.63.73,4.01,1.12l-.32.28c-.19-1.34-.41-2.81-.62-4.29l-.02-.13.1-.09c1.43-1.34,2.99-2.79,4.56-4.26l.11-.1.14.04c2.08.58,4.32,1.21,6.58,1.84l-.33.29c-.32-2.23-.67-4.63-1.01-7.04l-.02-.13.1-.09c.44-.41.93-.86,1.41-1.31,1.31-1.22,2.61-2.43,3.9-3.64l.11-.1.14.04c2.21.62,4.41,1.24,6.58,1.85l-.33.29c-.34-2.37-.68-4.72-1.01-7.04l-.02-.13.1-.09c1.43-1.33,2.84-2.65,4.24-3.96l-.05.31c-1.64-2.95-2.59-6.23-2.71-9.49-.07-1.63.03-3.25.35-4.83.27-1.58.78-3.09,1.39-4.54,2.5-5.79,7.55-9.96,12.96-11.64,5.44-1.73,11.15-1.04,15.61,1.18,4.53,2.18,7.73,5.86,9.6,9.59,1.82,3.79,2.36,7.67,2.05,10.95-.27,3.3-1.26,6.01-2.34,8.03-.13.25-.26.5-.39.74-.15.23-.29.45-.43.66-.28.42-.52.84-.79,1.18-.56.68-.99,1.29-1.42,1.71-.41.41-.73.73-.96.96-.22.21-.34.32-.34.32,0,0,.1-.12.31-.35.22-.24.53-.56.93-.99.41-.43.83-1.05,1.38-1.73.26-.35.49-.76.77-1.19.13-.21.27-.43.42-.66.12-.24.25-.49.38-.74,1.05-2.02,2-4.71,2.24-7.97.28-3.24-.27-7.06-2.09-10.78-1.86-3.66-5.03-7.26-9.48-9.38-4.38-2.16-9.98-2.81-15.3-1.11-5.29,1.66-10.22,5.75-12.66,11.41-.6,1.41-1.09,2.89-1.35,4.43-.31,1.53-.4,3.12-.33,4.71.12,3.19,1.05,6.39,2.66,9.27l.1.18-.15.14c-1.4,1.31-2.81,2.63-4.24,3.96l.08-.22c.33,2.32.67,4.67,1.02,7.04l.06.39-.38-.11c-2.18-.61-4.37-1.22-6.58-1.84l.25-.06c-1.29,1.21-2.59,2.42-3.9,3.64-.48.45-.96.9-1.41,1.31l.08-.23c.35,2.41.69,4.81,1.01,7.04l.06.39-.38-.11c-2.26-.63-4.51-1.26-6.58-1.85l.25-.06c-1.57,1.47-3.13,2.92-4.56,4.26l.08-.22c.21,1.48.42,2.95.62,4.29l.06.39-.37-.11c-1.39-.39-2.76-.78-4.01-1.13l.24-.06c-.92.86-1.83,1.71-2.66,2.48l.08-.17c-.14,2.26-.28,4.49-.4,6.52l-.18-.25c3.38.85,6.67,1.69,9.73,2.46l-.22.06c12.6-11.71,23.46-21.81,31.62-29.39l.08-.07.1.04c3.52,1.58,7.04,1.98,10.02,1.78,3-.22,5.47-1.03,7.36-1.9,1.89-.88,3.18-1.85,4.05-2.48.41-.34.72-.6.94-.78.21-.17.33-.26.33-.26Z"/>
        </g>
      </g>
      <g>
        <path class="cls-6" d="m618.36,57.13c8.42-7.86,8.88-21.05,1.02-29.47-7.86-8.42-21.05-8.88-29.47-1.02-7.2,6.72-8.57,17.34-3.91,25.55h0s-4.24,3.96-4.24,3.96l1.01,7.04-6.58-1.85-5.31,4.95,1.01,7.04-6.58-1.85-4.56,4.26.62,4.29-4.01-1.12-2.66,2.48-.4,6.52,9.73,2.45,31.57-29.45c7.43,3.33,16.44,2.12,22.77-3.78Zm-3.08-25.64c2.25,2.42,2.12,6.2-.29,8.46-2.42,2.25-6.2,2.12-8.45-.29-2.25-2.42-2.12-6.2.29-8.45,2.42-2.25,6.2-2.12,8.45.29Z"/>
        <g>
          <path class="cls-11" d="m618.36,57.13c8.42-7.86,8.88-21.05,1.02-29.47-7.86-8.42-21.05-8.88-29.47-1.02-7.2,6.72-8.57,17.34-3.91,25.55h0s-4.24,3.96-4.24,3.96l1.01,7.04-6.58-1.85-5.31,4.95,1.01,7.04-6.58-1.85-4.56,4.26.62,4.29-4.01-1.12-2.66,2.48-.4,6.52,9.73,2.45,31.57-29.45c7.43,3.33,16.44,2.12,22.77-3.78Zm-3.08-25.64c2.25,2.42,2.12,6.2-.29,8.46-2.42,2.25-6.2,2.12-8.45-.29-2.25-2.42-2.12-6.2.29-8.45,2.42-2.25,6.2-2.12,8.45.29Z"/>
          <path class="cls-12" d="m615.28,31.49s-.39-.36-1.19-.86c-.78-.48-2.11-1.01-3.76-.83-1.62.15-3.55,1.19-4.53,3.15-1.01,1.9-.81,4.68.92,6.51,1.71,1.86,4.47,2.25,6.43,1.38,2.02-.84,3.2-2.69,3.46-4.3.3-1.64-.14-3-.56-3.81-.43-.83-.81-1.21-.77-1.24.01-.01.11.08.29.26.18.18.41.47.66.89.49.81,1.02,2.22.75,3.97-.23,1.72-1.45,3.74-3.63,4.68-1.07.47-2.34.65-3.59.4-1.26-.22-2.48-.88-3.41-1.86-.91-1-1.49-2.26-1.62-3.53-.16-1.27.11-2.53.65-3.56,1.08-2.11,3.19-3.19,4.92-3.3,1.76-.15,3.14.47,3.91,1.02.4.28.67.53.84.72.17.19.25.29.24.3Z"/>
          <path class="cls-12" d="m618.36,57.13s-.1.1-.3.29c-.22.2-.52.47-.92.82-.86.66-2.14,1.65-4.04,2.57-1.89.9-4.38,1.74-7.41,1.99-3.02.23-6.59-.16-10.17-1.74l.17-.03c-8.14,7.62-18.96,17.75-31.51,29.51l-.09.09-.12-.03c-3.05-.77-6.35-1.59-9.73-2.44l-.2-.05v-.2c.13-2.03.27-4.26.4-6.52v-.1s.08-.07.08-.07c.82-.77,1.74-1.62,2.65-2.48l.1-.1.14.04c1.25.35,2.63.73,4.01,1.12l-.32.28c-.19-1.34-.41-2.81-.62-4.29l-.02-.13.1-.09c1.43-1.34,2.99-2.79,4.56-4.26l.11-.1.14.04c2.08.58,4.32,1.21,6.58,1.84l-.33.29c-.32-2.23-.67-4.63-1.01-7.04l-.02-.13.1-.09c.44-.41.93-.86,1.41-1.31,1.31-1.22,2.61-2.43,3.9-3.64l.11-.1.14.04c2.21.62,4.41,1.24,6.58,1.85l-.33.29c-.34-2.37-.68-4.72-1.01-7.04l-.02-.13.1-.09c1.43-1.33,2.84-2.65,4.24-3.96l-.05.31c-1.64-2.95-2.59-6.23-2.71-9.49-.07-1.63.03-3.26.35-4.83.27-1.58.78-3.09,1.39-4.54,2.5-5.79,7.55-9.96,12.96-11.64,5.44-1.73,11.15-1.04,15.61,1.18,4.53,2.18,7.73,5.86,9.6,9.59,1.82,3.79,2.36,7.67,2.05,10.95-.27,3.3-1.26,6.01-2.34,8.03-.13.25-.26.5-.39.74-.15.23-.29.45-.43.66-.28.42-.52.84-.79,1.18-.56.68-.99,1.29-1.42,1.71-.41.41-.73.73-.96.96-.22.21-.34.32-.34.32,0,0,.1-.12.31-.35.22-.24.53-.56.93-.99.41-.43.83-1.05,1.38-1.73.26-.35.49-.76.77-1.19.13-.21.27-.43.42-.66.12-.24.25-.49.38-.74,1.05-2.02,2-4.71,2.24-7.97.28-3.24-.27-7.06-2.09-10.78-1.86-3.66-5.03-7.26-9.48-9.38-4.38-2.16-9.98-2.81-15.3-1.11-5.29,1.66-10.22,5.75-12.66,11.41-.6,1.41-1.09,2.89-1.35,4.43-.31,1.53-.4,3.12-.33,4.71.12,3.19,1.05,6.39,2.66,9.27l.1.18-.15.14c-1.4,1.31-2.81,2.63-4.24,3.96l.08-.22c.33,2.32.67,4.67,1.02,7.04l.06.39-.38-.11c-2.18-.61-4.37-1.22-6.58-1.84l.25-.06c-1.29,1.21-2.59,2.42-3.9,3.64-.48.45-.96.9-1.41,1.31l.08-.23c.35,2.41.69,4.81,1.01,7.04l.06.39-.38-.11c-2.26-.63-4.51-1.26-6.58-1.85l.25-.06c-1.57,1.47-3.13,2.92-4.56,4.26l.08-.22c.21,1.48.42,2.95.62,4.29l.06.39-.37-.11c-1.39-.39-2.76-.78-4.01-1.13l.24-.06c-.92.86-1.83,1.71-2.66,2.48l.08-.17c-.14,2.26-.28,4.49-.4,6.52l-.18-.25c3.38.85,6.67,1.69,9.73,2.46l-.22.06c12.6-11.71,23.46-21.81,31.62-29.39l.08-.07.1.04c3.52,1.58,7.04,1.98,10.02,1.78,3-.22,5.47-1.03,7.36-1.9,1.89-.88,3.18-1.85,4.05-2.48.41-.34.72-.6.94-.78.21-.17.33-.26.33-.26Z"/>
        </g>
      </g>
      <path class="cls-12" d="m616.44,55.51c-.07-.06,1.22-1.09,2.8-3.53.81-1.2,1.57-2.83,2.14-4.8.56-1.97.87-4.33.6-6.9-.28-2.56-1.09-5.35-2.75-7.89-1.66-2.52-4.02-4.91-7.08-6.41-1.5-.79-3.18-1.35-4.93-1.66-.87-.19-1.77-.23-2.68-.31-.91.02-1.83,0-2.74.14-3.69.39-7.33,2.07-10.22,4.72-2.85,2.7-4.78,6.22-5.42,9.87-.2.91-.25,1.82-.33,2.73.01.91,0,1.81.12,2.69.19,1.77.63,3.48,1.32,5.04,1.29,3.16,3.51,5.68,5.91,7.51,2.43,1.83,5.15,2.83,7.68,3.29,2.55.45,4.92.31,6.93-.12,2.01-.44,3.68-1.08,4.94-1.81,2.54-1.41,3.66-2.62,3.72-2.55,0,0-.06.08-.21.21-.17.15-.38.34-.65.58-.28.26-.65.57-1.12.88-.46.33-.98.72-1.64,1.05-1.26.76-2.94,1.44-4.97,1.91-2.03.46-4.45.63-7.05.19-2.59-.44-5.38-1.45-7.88-3.3-2.47-1.86-4.75-4.43-6.09-7.67-.71-1.6-1.17-3.35-1.37-5.17-.14-.91-.12-1.83-.13-2.77.08-.93.12-1.87.33-2.81.66-3.75,2.64-7.38,5.57-10.16,2.98-2.73,6.73-4.45,10.52-4.85.94-.14,1.89-.12,2.82-.13.93.08,1.86.12,2.75.32,1.8.33,3.52.91,5.06,1.73,3.14,1.56,5.55,4.02,7.23,6.61,1.68,2.62,2.49,5.48,2.75,8.09.25,2.63-.08,5.03-.68,7.02-.61,1.99-1.41,3.63-2.25,4.83-.38.63-.8,1.13-1.16,1.56-.34.45-.68.79-.96,1.06-.26.25-.47.45-.63.61-.14.14-.22.2-.23.19Z"/>
      <path class="cls-12" d="m615.6,40.71s.44-.45,1.02-1.38c.57-.92,1.2-2.48.99-4.43-.11-.96-.42-2-1.05-2.96-.63-.94-1.51-1.83-2.66-2.39-1.13-.58-2.5-.85-3.87-.68-1.38.15-2.73.78-3.81,1.77-1.06,1.01-1.78,2.32-2.03,3.68-.27,1.36-.09,2.74.41,3.91.48,1.18,1.3,2.13,2.2,2.82.91.69,1.93,1.07,2.88,1.25,1.93.35,3.53-.17,4.48-.68.97-.52,1.41-.96,1.45-.92.01.01-.09.13-.31.33-.21.21-.56.48-1.04.77-.95.57-2.6,1.18-4.64.86-1-.16-2.09-.55-3.07-1.27-.96-.72-1.86-1.72-2.38-2.98-.55-1.24-.75-2.73-.47-4.19.26-1.47,1.03-2.88,2.17-3.97,1.16-1.07,2.63-1.74,4.11-1.89,1.48-.18,2.94.13,4.15.76,1.22.61,2.16,1.57,2.81,2.59.65,1.02.96,2.14,1.05,3.15.18,2.06-.54,3.66-1.18,4.57-.32.47-.62.79-.84.99-.22.2-.34.3-.35.29Z"/>
      <path class="cls-12" d="m561.47,89.21c-.1-.11,7.01-6.9,15.88-15.17,8.87-8.27,16.13-14.89,16.23-14.79.1.11-7.01,6.9-15.88,15.17-8.86,8.27-16.13,14.89-16.23,14.79Z"/>
    </g>
    <g>
      <path class="cls-12" d="m530.76,179.55c0,.14-1.12.26-2.5.26s-2.5-.12-2.5-.26,1.12-.26,2.5-.26,2.5.12,2.5.26Z"/>
      <path class="cls-12" d="m540.76,179.55c0,.14-1.12.26-2.5.26s-2.5-.12-2.5-.26,1.12-.26,2.5-.26,2.5.12,2.5.26Z"/>
      <path class="cls-12" d="m550.76,179.55c0,.14-1.12.26-2.5.26s-2.5-.12-2.5-.26,1.12-.26,2.5-.26,2.5.12,2.5.26Z"/>
      <path class="cls-12" d="m560.76,179.55c0,.14-1.12.26-2.5.26s-2.5-.12-2.5-.26,1.12-.26,2.5-.26,2.5.12,2.5.26Z"/>
      <path class="cls-12" d="m570.76,179.55c0,.14-1.12.26-2.5.26s-2.5-.12-2.5-.26,1.12-.26,2.5-.26,2.5.12,2.5.26Z"/>
      <path class="cls-12" d="m580.76,179.55c0,.14-1.12.26-2.5.26s-2.5-.12-2.5-.26,1.12-.26,2.5-.26,2.5.12,2.5.26Z"/>
      <path class="cls-12" d="m589.24,178.03c.11,0,.2.62.24,1.52v.23s-.24.01-.24.01c-.3.01-.63.02-.98.02-1.38,0-2.5-.12-2.5-.26s1.12-.26,2.5-.26c.35,0,.68,0,.98.02l-.24.24c.04-.89.13-1.52.24-1.52Z"/>
      <path class="cls-12" d="m589.24,168.03c.14,0,.26,1.12.26,2.5s-.12,2.5-.26,2.5-.26-1.12-.26-2.5.12-2.5.26-2.5Z"/>
      <path class="cls-12" d="m589.24,158.03c.14,0,.26,1.12.26,2.5s-.12,2.5-.26,2.5-.26-1.12-.26-2.5.12-2.5.26-2.5Z"/>
      <path class="cls-12" d="m589.24,148.03c.14,0,.26,1.12.26,2.5s-.12,2.5-.26,2.5-.26-1.12-.26-2.5.12-2.5.26-2.5Z"/>
      <path class="cls-12" d="m589.24,138.03c.14,0,.26,1.12.26,2.5s-.12,2.5-.26,2.5-.26-1.12-.26-2.5.12-2.5.26-2.5Z"/>
      <path class="cls-12" d="m589.24,128.03c.14,0,.26,1.12.26,2.5s-.12,2.5-.26,2.5-.26-1.12-.26-2.5.12-2.5.26-2.5Z"/>
      <path class="cls-12" d="m589.24,118.03c.14,0,.26,1.12.26,2.5s-.12,2.5-.26,2.5-.26-1.12-.26-2.5.12-2.5.26-2.5Z"/>
      <path class="cls-12" d="m589.24,108.03c.14,0,.26,1.12.26,2.5s-.12,2.5-.26,2.5-.26-1.12-.26-2.5.12-2.5.26-2.5Z"/>
      <path class="cls-12" d="m589.24,98.03c.14,0,.26,1.12.26,2.5s-.12,2.5-.26,2.5-.26-1.12-.26-2.5.12-2.5.26-2.5Z"/>
      <path class="cls-12" d="m589.24,88.03c.14,0,.26,1.12.26,2.5s-.12,2.5-.26,2.5-.26-1.12-.26-2.5.12-2.5.26-2.5Z"/>
      <path class="cls-12" d="m589.24,78.03c.14,0,.26,1.12.26,2.5s-.12,2.5-.26,2.5-.26-1.12-.26-2.5.12-2.5.26-2.5Z"/>
    </g>
  </g>
  <g id="Folder">
    <g>
      <path class="cls-12" d="m514.27,279.22c0,.14-1.12.26-2.5.26s-2.5-.12-2.5-.26,1.12-.26,2.5-.26,2.5.12,2.5.26Z"/>
      <path class="cls-12" d="m524.27,279.22c0,.14-1.12.26-2.5.26s-2.5-.12-2.5-.26,1.12-.26,2.5-.26,2.5.12,2.5.26Z"/>
      <path class="cls-12" d="m534.27,279.22c0,.14-1.12.26-2.5.26s-2.5-.12-2.5-.26,1.12-.26,2.5-.26,2.5.12,2.5.26Z"/>
      <path class="cls-12" d="m544.27,279.22c0,.14-1.12.26-2.5.26s-2.5-.12-2.5-.26,1.12-.26,2.5-.26,2.5.12,2.5.26Z"/>
      <path class="cls-12" d="m554.27,279.22c0,.14-1.12.26-2.5.26s-2.5-.12-2.5-.26,1.12-.26,2.5-.26,2.5.12,2.5.26Z"/>
      <path class="cls-12" d="m564.27,279.22c0,.14-1.12.26-2.5.26s-2.5-.12-2.5-.26,1.12-.26,2.5-.26,2.5.12,2.5.26Z"/>
      <path class="cls-12" d="m574.27,279.22c0,.14-1.12.26-2.5.26s-2.5-.12-2.5-.26,1.12-.26,2.5-.26,2.5.12,2.5.26Z"/>
      <path class="cls-12" d="m584.27,279.22c0,.14-1.12.26-2.5.26s-2.5-.12-2.5-.26,1.12-.26,2.5-.26,2.5.12,2.5.26Z"/>
      <path class="cls-12" d="m594.27,279.22c0,.14-1.12.26-2.5.26s-2.5-.12-2.5-.26,1.12-.26,2.5-.26,2.5.12,2.5.26Z"/>
      <path class="cls-12" d="m604.27,279.22c0,.14-1.12.26-2.5.26s-2.5-.12-2.5-.26,1.12-.26,2.5-.26,2.5.12,2.5.26Z"/>
      <path class="cls-12" d="m613.34,278.29c.08,0,.15.36.19.94v.18s-.2.02-.2.02c-.42.04-.97.06-1.56.06-1.38,0-2.5-.12-2.5-.26s1.12-.26,2.5-.26c.6,0,1.14.02,1.56.06l-.2.2c.05-.57.13-.93.21-.93Z"/>
      <path class="cls-12" d="m613.44,268.29c.14,0,.25,1.12.24,2.5-.01,1.38-.14,2.5-.29,2.5-.14,0-.25-1.12-.24-2.5.01-1.38.14-2.5.28-2.5Z"/>
      <path class="cls-12" d="m613.54,258.29c.14,0,.25,1.12.24,2.5-.01,1.38-.14,2.5-.29,2.5-.14,0-.25-1.12-.24-2.5.01-1.38.14-2.5.29-2.5Z"/>
      <path class="cls-12" d="m613.64,248.29c.14,0,.25,1.12.24,2.5-.01,1.38-.14,2.5-.29,2.5s-.25-1.12-.24-2.5c.01-1.38.14-2.5.28-2.5Z"/>
    </g>
    <g>
      <path class="cls-7" d="m580.54,216.95l1.84,33.79c.07,1.2,1.06,2.15,2.26,2.16l60.81.45c1.26,0,2.29-1,2.3-2.26l.19-26.31c0-1.27-1.01-2.3-2.28-2.3l-37.4-.03c-.6,0-1.18-.24-1.61-.67l-6.45-6.45c-.42-.42-1-.66-1.6-.67l-15.77-.12c-1.32,0-2.37,1.09-2.29,2.41Z"/>
      <rect class="cls-3" x="581.4" y="218.26" width="66.45" height="39.7" transform="translate(1.76 -4.5) rotate(.42)"/>
      <path class="cls-7" d="m576.23,221.54l4.77,41.44c.08.74.71,1.29,1.45,1.3l64.75.47c.77,0,1.41-.58,1.47-1.34l3.56-41.38c.07-.85-.6-1.59-1.45-1.59l-73.09-.54c-.88,0-1.57.76-1.47,1.63Z"/>
    </g>
  </g>
  <g id="Device">
    <g>
      <g>
        <g>
          <g>
            <rect class="cls-12" x="172.71" y="157.11" width="363.83" height="240.6" rx="14.57" ry="14.57"/>
            <path class="cls-12" d="m157.49,379.92h394.19v3.25c0,9.82-7.97,17.8-17.8,17.8H175.29c-9.82,0-17.8-7.97-17.8-17.8v-3.25h0Z"/>
            <rect class="cls-4" x="182.47" y="166.67" width="343.28" height="203.18"/>
            <polygon class="cls-4" points="318.76 379.92 323.65 387.7 392.48 387.7 397.02 379.92 318.76 379.92"/>
          </g>
          <g>
            <path class="cls-10" d="m192.82,173.55h323.3c1.81,0,3.27,1.47,3.27,3.27v189.11c0,1.81-1.47,3.27-3.27,3.27H192.82c-1.81,0-3.27-1.47-3.27-3.27v-189.11c0-1.81,1.47-3.27,3.27-3.27Z"/>
            <rect class="cls-2" x="189.54" y="187.89" width="329.85" height="181.32"/>
            <path class="cls-12" d="m216.6,181.11c0,1.46-1.18,2.63-2.63,2.63s-2.63-1.18-2.63-2.63,1.18-2.63,2.63-2.63,2.63,1.18,2.63,2.63Z"/>
            <path class="cls-12" d="m200.63,181.11c0,1.46-1.18,2.63-2.63,2.63s-2.63-1.18-2.63-2.63,1.18-2.63,2.63-2.63,2.63,1.18,2.63,2.63Z"/>
            <path class="cls-12" d="m208.3,181.11c0,1.46-1.18,2.63-2.63,2.63s-2.63-1.18-2.63-2.63,1.18-2.63,2.63-2.63,2.63,1.18,2.63,2.63Z"/>
          </g>
          <path class="cls-4" d="m533.42,379.92c0,.13-80.75.24-180.34.24s-180.36-.11-180.36-.24,80.74-.24,180.36-.24,180.34.11,180.34.24Z"/>
        </g>
        <g>
          <rect class="cls-6" x="212.4" y="279.23" width="75.27" height="5.04"/>
          <rect class="cls-6" x="309.63" y="209.32" width="75.27" height="5.04"/>
          <path class="cls-6" d="m496.85,228.07c0,.13-41.91.24-93.61.24s-93.61-.11-93.61-.24,41.9-.24,93.61-.24,93.61.11,93.61.24Z"/>
          <path class="cls-6" d="m496.85,239.07c0,.13-41.91.24-93.61.24s-93.61-.11-93.61-.24,41.9-.24,93.61-.24,93.61.11,93.61.24Z"/>
          <path class="cls-6" d="m496.85,250.06c0,.13-41.91.24-93.61.24s-93.61-.11-93.61-.24,41.9-.24,93.61-.24,93.61.11,93.61.24Z"/>
          <path class="cls-6" d="m496.85,261.05c0,.13-41.91.24-93.61.24s-93.61-.11-93.61-.24,41.9-.24,93.61-.24,93.61.11,93.61.24Z"/>
          <path class="cls-6" d="m496.85,272.05c0,.13-41.91.24-93.61.24s-93.61-.11-93.61-.24,41.9-.24,93.61-.24,93.61.11,93.61.24Z"/>
          <path class="cls-6" d="m382.71,283.04c0,.13-16.36.24-36.54.24s-36.54-.11-36.54-.24,16.36-.24,36.54-.24,36.54.11,36.54.24Z"/>
          <path class="cls-6" d="m495.48,304.38c0,.13-27.55.24-61.52.24s-61.53-.11-61.53-.24,27.54-.24,61.53-.24,61.52.11,61.52.24Z"/>
          <path class="cls-6" d="m495.48,316.05c0,.13-27.55.24-61.52.24s-61.53-.11-61.53-.24,27.54-.24,61.53-.24,61.52.11,61.52.24Z"/>
          <path class="cls-6" d="m495.48,327.73c0,.13-27.55.24-61.52.24s-61.53-.11-61.53-.24,27.54-.24,61.53-.24,61.52.11,61.52.24Z"/>
          <path class="cls-6" d="m495.48,339.4c0,.13-27.55.24-61.52.24s-61.53-.11-61.53-.24,27.54-.24,61.53-.24,61.52.11,61.52.24Z"/>
          <path class="cls-6" d="m287.86,303.27c0,.13-16.42.24-36.68.24s-36.68-.11-36.68-.24,16.42-.24,36.68-.24,36.68.11,36.68.24Z"/>
          <path class="cls-6" d="m287.86,312.43c0,.13-16.42.24-36.68.24s-36.68-.11-36.68-.24,16.42-.24,36.68-.24,36.68.11,36.68.24Z"/>
          <path class="cls-6" d="m287.86,321.6c0,.13-16.42.24-36.68.24s-36.68-.11-36.68-.24,16.42-.24,36.68-.24,36.68.11,36.68.24Z"/>
          <path class="cls-6" d="m287.86,330.76c0,.13-16.42.24-36.68.24s-36.68-.11-36.68-.24,16.42-.24,36.68-.24,36.68.11,36.68.24Z"/>
          <path class="cls-6" d="m287.86,339.93c0,.13-16.42.24-36.68.24s-36.68-.11-36.68-.24,16.42-.24,36.68-.24,36.68.11,36.68.24Z"/>
          <g>
            <rect class="cls-3" x="309.58" y="298.81" width="53.4" height="51.67"/>
            <polygon class="cls-10" points="313.72 346.06 328.49 319.47 340.58 336.47 347.92 327.44 358.84 346.06 313.72 346.06"/>
            <path class="cls-10" d="m345.72,314.3c0,2.12-1.72,3.84-3.84,3.84s-3.84-1.72-3.84-3.84,1.72-3.84,3.84-3.84,3.84,1.72,3.84,3.84Z"/>
            <path class="cls-10" d="m358.84,346.2s0-.08-.01-.21c0-.15,0-.35-.01-.6,0-.55-.01-1.33-.03-2.33-.01-2.05-.03-5.01-.06-8.77-.03-7.55-.07-18.29-.11-31.2l.22.22c-13.07.01-28.56.02-45.12.04-.06.05.48-.48.25-.25h0v2.93c0,.98,0,1.95,0,2.92,0,1.94,0,3.85,0,5.75,0,3.8,0,7.51,0,11.13,0,7.24-.02,14.08-.02,20.37l-.22-.22c13.47.05,24.72.09,32.63.11,3.94.02,7.05.04,9.2.06,1.05.01,1.86.02,2.44.03.26,0,.47,0,.63.01.14,0,.22,0,.22.01,0,0-.06,0-.2.01-.16,0-.35,0-.61.01-.57,0-1.37.01-2.4.03-2.14.01-5.23.03-9.15.06-7.94.03-19.24.07-32.77.11h-.22s0-.22,0-.22c0-6.29-.02-13.13-.02-20.37,0-3.62,0-7.34,0-11.13,0-1.9,0-3.82,0-5.75,0-.97,0-1.94,0-2.92v-2.2s0-.37,0-.37v-.35h0c-.23.21.31-.33.26-.27,16.56.01,32.05.03,45.12.04h.22s0,.22,0,.22c-.05,12.96-.08,23.75-.11,31.34-.02,3.74-.04,6.69-.06,8.73-.01.98-.02,1.74-.03,2.28,0,.24,0,.43-.01.58,0,.13,0,.19-.01.19Z"/>
          </g>
        </g>
        <g>
          <rect class="cls-3" x="213.82" y="200.72" width="72.43" height="70.08"/>
          <polygon class="cls-6" points="219.44 264.8 239.48 228.74 255.86 251.79 265.82 239.55 280.64 264.8 219.44 264.8"/>
          <path class="cls-6" d="m262.85,221.73c0,2.88-2.33,5.21-5.21,5.21s-5.21-2.33-5.21-5.21,2.33-5.21,5.21-5.21,5.21,2.33,5.21,5.21Z"/>
          <path class="cls-6" d="m280.64,265s-.01-.1-.02-.29c0-.21,0-.48-.02-.82,0-.75-.02-1.8-.03-3.15-.02-2.78-.04-6.8-.08-11.9-.04-10.24-.09-24.81-.15-42.31l.3.3c-17.72.01-38.74.03-61.19.05-.08.07.65-.65.34-.34v3.97c0,1.32,0,2.64,0,3.96,0,2.63,0,5.23,0,7.8,0,5.15,0,10.19,0,15.1-.01,9.81-.02,19.09-.03,27.63l-.3-.3c18.27.06,33.52.12,44.25.15,5.35.03,9.57.06,12.48.08,1.42.01,2.53.03,3.31.04.36,0,.64.01.86.02.19,0,.3.01.3.02,0,0-.08.01-.27.02-.21,0-.48,0-.83.02-.77,0-1.85.02-3.25.03-2.9.02-7.09.04-12.41.08-10.77.04-26.1.09-44.44.15h-.3s0-.3,0-.3c-.01-8.54-.02-17.81-.03-27.63,0-4.91,0-9.95,0-15.1,0-2.57,0-5.18,0-7.8,0-1.31,0-2.63,0-3.96v-2.99s0-.5,0-.5v-.48c-.31.3.42-.43.35-.35,22.46.02,43.47.03,61.19.05h.3s0,.3,0,.3c-.06,17.58-.11,32.22-.15,42.5-.03,5.07-.06,9.07-.08,11.83-.02,1.33-.03,2.36-.03,3.1,0,.33-.01.58-.02.79,0,.17-.01.26-.02.25Z"/>
        </g>
      </g>
      <g>
        <polygon class="cls-7" points="295.96 227.35 299.54 234.6 307.54 235.76 301.75 241.41 303.12 249.38 295.96 245.61 288.81 249.38 290.17 241.41 284.38 235.76 292.39 234.6 295.96 227.35"/>
        <polygon class="cls-7" points="321.16 202.15 324.74 209.4 332.74 210.56 326.95 216.21 328.32 224.17 321.16 220.41 314.01 224.17 315.38 216.21 309.59 210.56 317.59 209.4 321.16 202.15"/>
        <polygon class="cls-7" points="354.85 192.26 358.42 199.51 366.42 200.67 360.64 206.31 362 214.28 354.85 210.52 347.69 214.28 349.06 206.31 343.27 200.67 351.27 199.51 354.85 192.26"/>
        <polygon class="cls-7" points="389.7 202.38 393.28 209.63 401.28 210.8 395.49 216.44 396.86 224.41 389.7 220.65 382.55 224.41 383.91 216.44 378.13 210.8 386.13 209.63 389.7 202.38"/>
        <polygon class="cls-7" points="413.73 226.41 417.31 233.66 425.31 234.82 419.52 240.46 420.88 248.43 413.73 244.67 406.57 248.43 407.94 240.46 402.15 234.82 410.15 233.66 413.73 226.41"/>
        <polygon class="cls-7" points="422.44 261.27 426.02 268.52 434.02 269.68 428.23 275.32 429.6 283.29 422.44 279.53 415.29 283.29 416.65 275.32 410.86 269.68 418.86 268.52 422.44 261.27"/>
        <polygon class="cls-7" points="413.96 295.89 417.54 303.14 425.54 304.3 419.75 309.95 421.12 317.91 413.96 314.15 406.81 317.91 408.17 309.95 402.38 304.3 410.39 303.14 413.96 295.89"/>
        <polygon class="cls-7" points="388.45 319.91 392.03 327.16 400.03 328.33 394.24 333.97 395.61 341.94 388.45 338.18 381.29 341.94 382.66 333.97 376.87 328.33 384.87 327.16 388.45 319.91"/>
        <polygon class="cls-7" points="354.17 329.82 357.75 337.07 365.75 338.23 359.96 343.87 361.32 351.84 354.17 348.08 347.01 351.84 348.38 343.87 342.59 338.23 350.59 337.07 354.17 329.82"/>
        <polygon class="cls-7" points="321.43 319.93 325.01 327.18 333.01 328.34 327.22 333.98 328.59 341.95 321.43 338.19 314.27 341.95 315.64 333.98 309.85 328.34 317.85 327.18 321.43 319.93"/>
        <polygon class="cls-7" points="295.52 295.26 299.1 302.51 307.1 303.68 301.31 309.32 302.68 317.29 295.52 313.53 288.36 317.29 289.73 309.32 283.94 303.68 291.94 302.51 295.52 295.26"/>
        <polygon class="cls-7" points="286.81 261.31 290.38 268.56 298.39 269.72 292.6 275.36 293.96 283.33 286.81 279.57 279.65 283.33 281.02 275.36 275.23 269.72 283.23 268.56 286.81 261.31"/>
        <g>
          <g>
            <path class="cls-12" d="m379.54,286.18h-7v-38.1c0-8.97-7.3-16.26-16.26-16.26s-16.26,7.3-16.26,16.26v38.1h-7v-38.1c0-12.83,10.44-23.26,23.26-23.26s23.26,10.44,23.26,23.26v38.1Z"/>
            <rect class="cls-7" x="324.92" y="269.23" width="62.7" height="40.23" rx="5.81" ry="5.81"/>
            <g>
              <path class="cls-12" d="m361.52,284.1c0,2.89-2.35,5.24-5.24,5.24s-5.24-2.35-5.24-5.24,2.35-5.24,5.24-5.24,5.24,2.35,5.24,5.24Z"/>
              <rect class="cls-12" x="354.85" y="286.18" width="2.86" height="10.78"/>
            </g>
          </g>
          <path class="cls-2" d="m328.27,305.64c-.14,0-.26-6.71-.26-14.98s.12-14.98.26-14.98.26,6.71.26,14.98-.12,14.98-.26,14.98Z"/>
          <path class="cls-2" d="m352.17,290.82s-.25-.08-.61-.35c-.37-.26-.86-.72-1.35-1.38-.98-1.28-1.87-3.61-1.29-6.12.61-2.51,2.45-4.19,3.9-4.9.73-.37,1.38-.55,1.82-.62.45-.07.7-.07.71-.04.02.1-.99.19-2.35.98-1.34.76-3.01,2.38-3.57,4.69-.54,2.32.23,4.52,1.09,5.8.86,1.32,1.73,1.86,1.66,1.93Z"/>
        </g>
      </g>
    </g>
  </g>
  <g id="Character">
    <g>
      <path class="cls-12" d="m135.72,251.37c-.8,2.24-.57,4.74.16,7.01.73,2.26,1.95,4.33,3.16,6.39,1.57-4.03,3.15-8.07,4.25-12.25.24-.92.42-2.02-.23-2.71-.5-.52-1.3-.6-2.02-.56-2.11.13-4.17,1-5.72,2.44"/>
      <polygon class="cls-12" points="47.54 363.53 31.18 400.93 53.7 400.93 69.73 363.24 47.54 363.53"/>
      <g>
        <path class="cls-4" d="m144.82,400.49c22.07-7.31,6.94-36.5,6.94-36.5l-96.47,9.07c-7.74-.05-14.05,6.21-14.05,13.96h0c0,7.71,6.25,13.96,13.96,13.96l89.62-.48"/>
        <path class="cls-4" d="m166.76,400.97c21.51-7.26,7.33-36.99,7.33-36.99l-94.04,8.87c-9.19.12-13.67,4.55-13.67,13.92h0c.02,7.71,2.87,14.2,13.64,13.98l86.75.22"/>
        <path class="cls-12" d="m145.57,368.91s-.09-.01-.27-.01c-.2,0-.46.01-.78.02-.72.03-1.73.07-3.01.12-2.65.13-6.42.32-11.06.55-9.37.51-22.26,1.22-36.49,2-1.78.08-3.54.24-5.28.26-1.74.03-3.46.1-5.14.2-1.68.1-3.33.23-4.95.4-1.6.19-3.23.36-4.7.96-1.47.57-2.82,1.42-3.91,2.51-1.09,1.09-1.87,2.43-2.37,3.81-.51,1.38-.79,2.77-.97,4.11-.17,1.34-.27,2.64-.26,3.89,0,2.49.44,4.75,1.24,6.55.79,1.81,1.89,3.13,2.92,3.98,1.04.87,2,1.3,2.66,1.5.67.21.68.14.03-.1-.64-.24-1.57-.69-2.58-1.56-1-.86-2.05-2.17-2.8-3.95-.75-1.77-1.16-3.99-1.15-6.43,0-1.22.1-2.51.29-3.83.19-1.32.47-2.69.97-4.01.5-1.33,1.25-2.6,2.29-3.64,1.05-1.04,2.35-1.84,3.77-2.39,1.42-.58,2.99-.74,4.6-.92,1.61-.17,3.25-.29,4.93-.39,1.68-.1,3.39-.17,5.12-.19,1.74-.02,3.5-.18,5.28-.26,14.24-.84,27.12-1.6,36.49-2.15,4.64-.3,8.41-.54,11.06-.71,1.28-.09,2.28-.17,3.01-.22.32-.03.58-.05.78-.07.18-.02.27-.03.27-.04Z"/>
        <path class="cls-12" d="m166.81,378.12s-.25.18-.76.38c-.51.2-1.3.4-2.28.47-1.94.15-4.89-.45-7.07-2.67-2.16-2.24-2.69-5.2-2.49-7.14.09-.99.31-1.76.52-2.27.21-.51.37-.77.4-.75.1.03-.47,1.13-.56,3.05-.1,1.87.47,4.66,2.49,6.75,2.04,2.08,4.81,2.72,6.69,2.66,1.92-.03,3.03-.58,3.06-.48Z"/>
      </g>
      <polygon class="cls-9" points="118.96 318.99 110.04 349.52 77.01 353.07 77.01 358.93 125.54 359.6 132.15 319.84 118.96 318.99"/>
      <path class="cls-7" d="m162.03,287.09c5.86.01,21.73,3,23.12,13.7,1.26,9.66,3.14,20.62,3.14,20.62l-20.89.56,7.12,1.88,3.05,45.09-54.06-1.87,2.87-23.18,2.35-23.17h0l-11.81-.96s4.04-20.17,11.09-26.39c0,0,6.45-5.67,15.56-6.27,9.11-.6,18.46,0,18.46,0"/>
      <path class="cls-12" d="m130.68,305.74c.13.01-.7,8.16-1.84,18.2-1.14,10.04-2.17,18.16-2.3,18.15-.13-.01.7-8.16,1.84-18.2,1.14-10.04,2.17-18.16,2.3-18.15Z"/>
      <path class="cls-12" d="m163.65,287.16s.03.13.06.38c.02.25.05.62.05,1.09.02.95-.06,2.35-.58,3.99-.5,1.62-1.35,3.59-3.07,5.2-.84.81-1.9,1.51-3.13,1.94-1.23.43-2.57.6-3.93.62-1.36.01-2.69-.04-3.96-.27-1.27-.23-2.48-.68-3.43-1.39-1.92-1.43-2.83-3.43-3.26-5.07-.45-1.66-.49-3.06-.45-4.01.02-.48.05-.84.08-1.09.03-.25.05-.38.07-.38.03,0,0,.53.02,1.47.01.94.1,2.31.58,3.93.45,1.6,1.37,3.51,3.2,4.84.91.66,2.04,1.08,3.27,1.3,1.23.21,2.54.27,3.88.25,1.33-.02,2.63-.18,3.79-.59,1.16-.41,2.18-1.07,2.99-1.83,1.66-1.54,2.52-3.42,3.05-5.01.56-1.6.67-2.97.71-3.91.03-.94.02-1.47.06-1.47Z"/>
      <g class="cls-5">
        <path d="m166.55,305.74c-2,9.57-4.61,19.4-6.61,28.96-.43,2.03-.88,4.14-2.12,5.8-.78,1.04-1.82,1.85-2.85,2.63-3.94,2.96-8.1,5.73-12.74,7.42,6.69-.57,13.34-1.72,19.83-3.45,1.1-.29,2.27-.65,2.98-1.54.63-.79.77-1.84.89-2.84,1.44-12.27,1.02-24.64.63-36.98"/>
      </g>
      <path class="cls-12" d="m188.63,321.57s-.56.07-1.57.12c-1.09.04-2.53.09-4.28.16-3.62.11-8.62.24-14.14.35-.61.01-1.21.02-1.77.03h-.22s0-.22,0-.22c-.2-5.13-.11-9.69-.01-12.96.05-1.64.11-2.96.17-3.87.06-.91.1-1.41.13-1.41.03,0,.04.5.04,1.41,0,.98-.02,2.28-.03,3.87-.02,3.27-.05,7.84.16,12.94l-.23-.22c.57-.01,1.17-.02,1.77-.04,5.52-.11,10.52-.18,14.14-.21,1.75,0,3.2,0,4.29-.01,1.01,0,1.57.03,1.57.06Z"/>
      <g>
        <path class="cls-6" d="m35.64,323.77l18.45,36.27h58.17l-2.35-4.74-16.85-.5-13.74-30.58c-.85-1.9-2.74-3.12-4.83-3.12h-37.21c-1.37,0-2.26,1.45-1.64,2.67Z"/>
        <circle class="cls-12" cx="62.54" cy="340.01" r="2.23"/>
      </g>
      <g>
        <g>
          <path class="cls-9" d="m163.93,259.76l-2.08,29.52c-.34,4.82-4.35,8.55-9.18,8.55h0c-5.32,0-9.53-4.5-9.18-9.8.18-2.81.35-5.11.35-5.11,0,0-7.13-1.11-7.23-8.26-.05-3.37.4-10.03.9-16.29.59-7.31,6.68-12.95,14.02-12.95h0c7.43.43,13.04,6.92,12.4,14.34Z"/>
          <path class="cls-8" d="m143.8,283.26s4.52.37,9.31-2.65c0,0-2.2,5.14-9.33,4.5l.02-1.85Z"/>
        </g>
        <g>
          <g>
            <g>
              <path class="cls-12" d="m139.74,263.01c-.02.54.42,1,.98,1.03.56.03,1.03-.38,1.05-.92.02-.54-.42-1-.98-1.03-.56-.03-1.03.38-1.05.92Z"/>
              <path class="cls-12" d="m139.11,261.61c.13.13.9-.44,2-.44,1.1-.01,1.9.55,2.02.42.06-.06-.07-.3-.42-.56-.35-.25-.93-.5-1.62-.5-.68,0-1.26.26-1.59.51-.34.26-.45.5-.39.56Z"/>
            </g>
            <g>
              <path class="cls-12" d="m150.08,263.31c-.02.54.42,1,.98,1.03.56.03,1.03-.38,1.05-.92.02-.54-.42-1-.98-1.03-.56-.03-1.03.38-1.05.92Z"/>
              <path class="cls-12" d="m149.9,261.81c.13.13.9-.44,2-.44,1.1-.01,1.9.55,2.02.42.06-.06-.07-.3-.42-.56-.35-.25-.93-.5-1.62-.5-.68,0-1.26.26-1.59.51-.34.26-.45.5-.39.56Z"/>
            </g>
            <path class="cls-12" d="m145.91,269.95c0-.06-.68-.18-1.78-.32-.28-.03-.55-.08-.59-.28-.07-.2.05-.5.19-.83.26-.68.54-1.39.83-2.13,1.15-3.04,1.98-5.54,1.86-5.58-.12-.05-1.16,2.38-2.31,5.42-.28.75-.54,1.46-.79,2.15-.11.32-.29.68-.15,1.1.08.21.28.36.46.41.18.05.34.06.48.07,1.11.06,1.8.06,1.81,0Z"/>
            <path class="cls-12" d="m149.15,270.71c-.18-.01-.18,1.18-1.2,2.03-1.02.85-2.29.71-2.3.88-.02.07.28.23.82.25.53.02,1.29-.15,1.92-.67.62-.52.89-1.21.93-1.7.05-.5-.09-.79-.17-.79Z"/>
          </g>
          <path class="cls-12" d="m149.62,257.51c.11.3,1.2.16,2.49.31,1.29.13,2.33.51,2.5.24.08-.13-.1-.41-.52-.7-.42-.29-1.08-.56-1.85-.65-.77-.08-1.48.04-1.95.23-.47.19-.71.43-.66.57Z"/>
          <path class="cls-12" d="m139.51,258.43c.19.25.95,0,1.86-.02.91-.04,1.68.17,1.86-.09.08-.13-.04-.38-.38-.61-.33-.24-.89-.43-1.51-.41-.62.02-1.17.25-1.48.5-.32.26-.43.51-.34.63Z"/>
        </g>
        <g>
          <path class="cls-9" d="m161.53,265.57c.12-.05,4.91-1.45,4.75,3.43-.16,4.88-5.03,3.72-5.03,3.58s.28-7.01.28-7.01Z"/>
          <path class="cls-8" d="m162.8,270.78s.08.06.22.13c.14.07.38.12.64.03.52-.17.98-.98,1.03-1.86.03-.44-.05-.87-.2-1.23-.14-.36-.36-.62-.62-.67-.26-.07-.45.08-.51.22-.07.13-.04.23-.07.24-.01.01-.1-.09-.06-.29.02-.1.08-.21.2-.3.12-.09.29-.13.47-.11.38.04.7.4.86.79.18.39.28.87.25,1.37-.06.98-.6,1.89-1.31,2.07-.35.08-.63-.03-.77-.15-.15-.13-.17-.24-.15-.24Z"/>
        </g>
      </g>
      <rect class="cls-12" x="47.35" y="360.1" width="71.11" height="3.47"/>
      <polygon class="cls-12" points="96.56 361.83 118.19 400.97 137.55 400.97 118.46 363.57 96.56 361.83"/>
      <path class="cls-4" d="m118.46,363.57c0,.14-15.94.34-35.59.44-19.66.1-35.6.06-35.6-.08,0-.14,15.93-.34,35.6-.44,19.66-.1,35.6-.06,35.6.08Z"/>
      <path class="cls-12" d="m135.54,255.17c1.3.49,2.81.39,4.02-.29-.51.42-.33,1.3.19,1.71.52.4,1.23.44,1.89.42,3.51-.12,6.96-1.6,9.48-4.05.03,1.24,1.02,2.3,2.18,2.72,1.16.42,2.45.3,3.65.01-.32,1.82-.64,3.71-.22,5.51.41,1.81,1.75,3.53,3.59,3.81.37.9.16,1.92.23,2.89.07.97.63,2.08,1.61,2.11.86.02,1.5-.85,1.61-1.7.11-.85-.39-2.58.22-3.96.66-1.49.4-1.22,1.05-2.71.66-1.49,1.03-3.55,1.54-5.1.51-1.55.71-3.28.13-4.8-.58-1.52-2.1-2.76-3.73-2.65.59-1.53.1-3.42-1.17-4.46-1.27-1.04-3.22-1.16-4.6-.27,0,0-5.57-3.78-11.72-1.69-6.11,2.08-7.07,7.67-8.4,7.85-1.34.17-5.4-2.03-4.7-.64.7,1.39,1.86,2.73,2.44,2.79s-4.65-2.15-2.85-.17c1.8,1.97,3.57,2.7,3.57,2.7Z"/>
      <path class="cls-2" d="m184.56,302.77c-.06.05-.53-.84-1.93-1.86-1.37-1.02-3.77-2.06-6.86-2.02-3.09-.01-6.64,1.33-10.11,3.46-3.52,2.08-7.05,5.01-11.47,6.93-2.2.96-4.54,1.51-6.81,1.54-2.27.05-4.46-.35-6.42-1.06-1.96-.71-3.67-1.78-5.11-2.91-1.46-1.13-2.73-2.25-3.98-3.16-2.46-1.88-4.93-2.66-6.65-2.71-1.73-.05-2.63.43-2.64.35,0,0,.05-.04.16-.08.11-.04.27-.13.49-.18.44-.15,1.12-.28,2-.29,1.76,0,4.32.75,6.86,2.62,2.56,1.77,5.17,4.58,9.04,5.92,3.81,1.39,8.57,1.44,12.87-.51,4.32-1.88,7.86-4.78,11.43-6.87,3.52-2.13,7.17-3.48,10.36-3.42,3.17,0,5.62,1.14,6.98,2.23.7.54,1.14,1.06,1.43,1.43.27.38.4.58.38.59Z"/>
      <path class="cls-2" d="m166.76,329.06s-.48-.32-1.38-.83c-.89-.51-2.25-1.17-4.05-1.56-1.78-.39-4.02-.51-6.36.11-2.36.59-4.77,1.82-7.45,2.81-1.34.49-2.71.86-4.06,1.03-1.35.17-2.66.18-3.9.07-2.48-.22-4.64-.93-6.33-1.73-1.7-.8-2.93-1.72-3.71-2.41-.41-.33-.68-.63-.87-.83-.19-.2-.28-.31-.27-.32.03-.04.45.36,1.27.99.81.63,2.05,1.49,3.74,2.23,1.68.75,3.8,1.4,6.22,1.59,2.42.2,5.11-.11,7.74-1.11,2.63-.97,5.07-2.21,7.51-2.79,2.43-.62,4.74-.46,6.56,0,1.83.45,3.2,1.17,4.07,1.74.44.29.76.53.97.71.21.18.31.28.3.29Z"/>
      <path class="cls-2" d="m174.64,345.87c-.03.06-.66-.34-1.93-.61-1.27-.27-3.2-.25-5.42.49-1.11.36-2.29.85-3.51,1.5-1.22.64-2.49,1.4-3.86,2.14-1.38.74-2.87,1.47-4.53,1.95-1.66.47-3.51.61-5.31.22-3.62-.79-6.49-2.88-9.13-4.46-2.63-1.62-5.22-2.8-7.54-2.96-2.32-.19-4.19.44-5.27,1.13-1.11.69-1.51,1.34-1.56,1.29-.01-.01.09-.16.3-.44.23-.26.59-.65,1.14-1.02,1.08-.77,3-1.48,5.41-1.33,2.42.12,5.1,1.31,7.76,2.92,2.68,1.57,5.52,3.61,8.99,4.36,1.72.37,3.47.25,5.07-.2,1.6-.45,3.07-1.16,4.44-1.88,1.37-.72,2.65-1.47,3.89-2.11,1.24-.64,2.45-1.12,3.6-1.47,2.28-.71,4.29-.67,5.58-.33.65.17,1.13.37,1.43.53.31.17.46.26.45.28Z"/>
      <path class="cls-2" d="m177.19,364.98s-.16.1-.51.21c-.34.11-.87.23-1.55.26-1.37.1-3.36-.3-5.63-1.18-1.14-.41-2.37-.9-3.74-1.22-1.37-.29-2.87-.4-4.45-.25-3.16.27-6.49,1.46-10.05,2.48-1.78.51-3.56.92-5.32,1.09-1.76.18-3.46.12-5.07-.07-3.21-.41-5.99-1.32-8.25-2.2-2.26-.89-4.03-1.76-5.23-2.37-.6-.31-1.07-.56-1.38-.73s-.47-.27-.46-.29c0-.02.18.05.51.2.38.17.85.38,1.42.64,1.23.56,3.01,1.37,5.28,2.21,2.26.84,5.02,1.69,8.17,2.07,1.58.18,3.25.22,4.96.04,1.71-.17,3.46-.58,5.23-1.08,3.53-1.01,6.9-2.21,10.15-2.46,1.62-.14,3.18,0,4.59.31,1.41.35,2.64.86,3.77,1.29,2.24.91,4.15,1.35,5.49,1.32,1.34-.01,2.05-.33,2.06-.27Z"/>
      <path class="cls-2" d="m187.44,316.51s-.17.28-.61.65c-.43.37-1.12.86-2.06,1.26-.95.39-2.16.71-3.53.68-1.37,0-2.86-.44-4.25-1.12-1.4-.67-2.66-1.4-3.89-1.84-1.22-.43-2.41-.51-3.38-.38-.97.14-1.68.53-2.1.87-.42.35-.59.62-.63.59-.02,0,.1-.32.5-.74.4-.41,1.15-.89,2.18-1.09,1.02-.2,2.29-.15,3.6.29,1.29.43,2.59,1.16,3.96,1.82,1.37.67,2.74,1.09,4.04,1.12,1.3.05,2.46-.21,3.38-.55,1.86-.71,2.74-1.65,2.8-1.56Z"/>
      <path class="cls-2" d="m129.37,316.02s-.07.17-.32.35c-.25.18-.7.34-1.26.33-.55,0-1.22-.17-1.85-.53-.63-.35-1.23-.83-1.89-1.25-1.28-.88-2.75-.95-3.74-.75-1,.18-1.55.55-1.6.47-.04-.04.46-.53,1.52-.83,1.02-.31,2.7-.28,4.1.67.69.45,1.27.93,1.85,1.28.56.35,1.14.53,1.63.58,1.01.12,1.52-.39,1.57-.31Z"/>
      <g>
        <path class="cls-9" d="m102.2,348.31l14.55-1.75,10.25,6.72,39.21-9.4,1.15-21.88,17.6-.43-.41,25.67c-.17,8.27-7.05,14.81-15.31,14.58l-57.42-1.59-2.44-4.89-12.32-.37,5.15-6.68Z"/>
        <path class="cls-8" d="m165.71,343.89s-.25.09-.74.22c-.53.14-1.24.32-2.13.56-1.9.47-4.58,1.14-7.87,1.96-6.69,1.62-15.86,3.84-26,6.3-.81.19-1.62.39-2.42.58l-.1.02-.08-.05c-3.63-2.38-7.08-4.66-10.24-6.74l.14.03c-5.76.66-10.74,1.24-14.56,1.68l.1-.05c-1.63,2.07-2.92,3.71-3.84,4.88-.43.54-.78.96-1.04,1.28-.24.29-.37.43-.38.43-.01,0,.1-.17.32-.47.24-.33.57-.77.98-1.33.89-1.19,2.16-2.86,3.74-4.96l.04-.05h.06c3.81-.48,8.79-1.11,14.54-1.82h.08s.06.03.06.03c3.17,2.07,6.63,4.33,10.26,6.71l-.18-.03c.8-.19,1.6-.38,2.42-.58,10.15-2.4,19.33-4.58,26.03-6.17,3.3-.76,5.99-1.38,7.9-1.82.9-.2,1.62-.36,2.15-.47.49-.1.75-.15.76-.13Z"/>
        <path class="cls-8" d="m110.15,352.48c0,.13-2.53.23-5.65.23-.35,0-.7,0-1.03,0l.15-.05c-2.02,1.69-3.59,2.91-3.66,2.82-.07-.08,1.38-1.44,3.37-3.16l.06-.05h.08c.34,0,.68,0,1.03,0,3.12,0,5.65.1,5.65.23Z"/>
        <path class="cls-8" d="m172.93,348.27c-.12.07-.88-1.76-2.86-2.98-1.96-1.26-3.94-1.14-3.92-1.29,0-.05.48-.16,1.27-.1.79.06,1.87.35,2.9,1,1.03.65,1.76,1.5,2.16,2.18.4.68.51,1.17.46,1.18Z"/>
      </g>
    </g>
  </g>
</svg>